<?xml version="1.0" encoding="utf-8"?>
<!-- Generator: Adobe Illustrator 17.1.0, SVG Export Plug-In . SVG Version: 6.00 Build 0)  -->
<!DOCTYPE svg PUBLIC "-//W3C//DTD SVG 1.1//EN" "http://www.w3.org/Graphics/SVG/1.1/DTD/svg11.dtd">
<svg version="1.1" xmlns="http://www.w3.org/2000/svg" xmlns:xlink="http://www.w3.org/1999/xlink" x="0px" y="0px"
	 viewBox="0 0 940 465" enable-background="new 0 0 940 465" xml:space="preserve">
<g id="Layer_1" display="none">
	<path display="inline" fill="#FDD0A2" stroke="#FFFFFF" d="M497.9,290.1l24.8-2.2l4.1,14.8l6,21.7l2.2,4.7l1.9,2.6l-0.4,1.8
		l1.8,0.9l-2.2,2.5l0.3,2.2l-0.9,3.1l2.1,5.1l-0.5,4.7l2.2,4.6l-7.3,0.9l-31.2,3.1l-0.3,2.3l3.6,3l-0.3,2.9l1.3,1.3l-2,2.8l-2,0.8
		l-4-2.5l-0.8-4.3l-1.2-0.4l-1.1,3.4l-0.2,3.2l-3.9-0.5l-3.3-26.6l0.7-33.5l0.4-19.4l-1.6-1.7L497.9,290.1z"/>
	<path display="inline" fill="#FD8D3C" stroke="#FFFFFF" d="M143.6,439.2l-0.2-1l0.9,0.3l0.2,1l-0.9,0.2L143.6,439.2z M142.2,437.7
		l0.9,0.5l0,1.1l-0.4-0.3L142.2,437.7z M136.6,433.1l0.7-0.4l0.4,0.1l0.2,0.9l-0.6,0.4l-0.8-0.3L136.6,433.1z M134.7,434.3l1.5-0.3
		l0.7,1l1.8,0.8l0.7,0.6l0.2,0.6l0.4,0l0.3,0.8l0.9,0.6l0.3,0.7l0.3-0.4l0.4,0.5l0.8,2.2l-0.1,0.6l-1,0.2l-0.6-1.1l-0.3,0.2l-1-0.6
		l-0.1,0.4l-0.7-0.1l0.4,0.8l0.5-0.4l0.5,0.2l0.2,1.2l-0.7,0.1l-1.5-1.2l-0.5-0.7l-0.2-0.8l-0.7,0.3l-0.2-0.6l0.6-0.2l0.4-0.7
		l-0.6-0.9l-0.7,0l-0.6-1.5l-0.5-0.7l-0.3,0.7l-0.5-0.8l0.3-0.6l-0.7-0.9L134.7,434.3z M135.7,439l0.8,0.2l0.3-0.6l0.5,0.1l-0.2,1
		l-0.8,0L135.7,439z M132.7,431.2l-0.6-0.4l0.4-0.5l1.9,0l0.8-0.3l0.9,0.9l1.3,0.6l0.1,0.7l-0.4,0.5l-0.8,0.1l-0.4,0.6l-0.8,0
		l-0.7,0.5l-0.6-1.3l-0.2-0.9l-0.6,0.1L132.7,431.2z M132.8,434l-0.6-0.3l-0.8-0.8l-0.3-0.7l0.3-0.5l0.5,0.2l-0.1-0.6l1.6,0.7l0.4,1
		l-0.4,0.3l0.1,1.2l0.4,0.2l0,1.5l-0.6-0.1l0.2,0.9l-0.4-0.3l-0.7-1.6L132.8,434z M131.5,435.7l0.1,0.7l-0.6-0.3l-2-2.2l-1-0.6
		l0.1-0.7l-0.7-1.4l-1.2-1l0.5-1.4l0.5,0.4l0.9,0.2l0.7-0.1l0.3,0.9l1.6,2.9L131.5,435.7z M127.8,424.4l1.2,0.1l0.6-0.2l0.1,0.5
		l1.4,1.3l-0.7-0.1l0,0.6l0.9,0.6l0.7,1.4l-0.6,0.6l-0.1,0.6l-0.8,1.4l-0.3,0.1l-0.5-1.1l0-0.7l-0.4-1l-0.7-1.1l-0.1-0.7l-0.7-1.5
		l-0.6-0.6l-0.5-1.1L127.8,424.4z M125.8,430.7l0.5-0.1l0.8,0.9l0,0.8l-0.7,0.4l-0.2-1.2L125.8,430.7z M123,425.9l0.9-0.2l0.5-0.7
		l1.1,0.5l-0.3,0.9l0.3,0.2l0.2-1l1.2,0l0.8,0.5l0,1.3l0.3,0l0.8,1.4l-0.8,0.5l-1.9-0.8l0.4,1.3l-0.3,0.7l-0.6-0.1l-0.6-0.7
		l-0.8-0.4l-0.8-1l-0.8-0.3l-0.2-0.9l0.3-0.4l-0.1-0.8L123,425.9z M87.8,420.1l-1.1,1.7l0,0.6l-1,0.5l0.1-1l1-1.1l0.6-1.1
		L87.8,420.1z M86.1,417.9l0,1.3l-0.3,1.3l-0.6-0.4l0.4-1.6L86.1,417.9z M79.9,359.4l0.2,0.2l1.1,0.2l0.6-0.2l0.8-0.1l0.9,0.1
		l0.5-0.2l0.6,0.4l1,0.4l1.2,0l0.3-0.4l0.8-0.3l0.3-0.5l0.9-0.2l0,0.3l0.5-0.2l1.1,0.3l0.9,0.6l0.7,0.2l0.2,0.3l0.6-0.1l0.7,0.4
		l0.2,0.3l0.3-0.4l0.5,0.1l11.1,55.9l1.5,0.2l0.1-0.6l1.6,0.5l0.7-1.1l1.8-0.5l0,1.7l0.6,0.5l1.1,0.3l0.4,0.8l3.8,2.4l1,1.9l0.4-0.7
		l1.1-1.3l0.7-0.2l0.2-0.8l-0.3-1.1l0.5-0.1l-0.1-1l0.9-0.5l1.1-1.2l1.7,1l0.1,0.9l0.6,0.7l0.8,0l1.3,1l0,0.4l0.7,0.5l1.5,0.4
		l3.1,2.7l0.6,0.8l0.9,0.7l1.6,1.7l1.5,1.4l-0.1,0.8l1.1-0.1l0.1,1.1l1,0.1l0.5,1.1l0.8-0.3l2,0.6l1.1-0.1l0.7,0.4l0.5,0l0.3,0.5
		l1.1-0.2l0.6,0.6l0,1.5l0.5,1l1.1,1.6l-0.2,0.6l-0.2,1.9l-0.7,1.6l-0.5-0.5l-0.4,0.3l-0.7-1.1l-0.1-0.5l-0.6-0.5l0.5-0.9l-0.3-0.1
		l-0.5,1.1l-0.6-0.4l-0.4,0.4l-1.8-0.8l0-1.6l-0.7,0.8l0.2,0.7l-0.9-0.3l-0.4-0.6l0.2-0.9l-0.4-0.7l-0.4,0.8l-1.1-1.1l-0.3,0.4
		l-0.6-1l0.4-0.9l0.6-0.2l-0.5-0.8l-0.1-1.2l-0.5,0.2l-1.3-0.6l-1.1-0.9l-1.9-0.3l-0.7-2.3l-0.6-0.1l-0.2-1l-0.6-0.1l-1.2-1
		l-0.4-0.6l-1.4,0.2l-2-1.3l-1.8-3.9l0,1l0.4,0.8l1.1,1.4l-0.1,0.3l0.8,1.2l0.2,0.9l-0.6,0l-0.8-0.8l-0.7,0l-0.8,0.5l-0.4-1.4
		l-0.9-1l-0.4,0.5l-2.2-0.7l-0.1,0.4l1.2,0.1l1.1,0.8l0.3-0.1l0.3,0.7l0.7,0.8l-0.9,0.8l-0.7-0.2l0.2,0.8l-1-0.4l-0.4-0.4l-0.5,0.1
		l-1.7-0.8l-1.3-0.8l-0.3-0.6l-0.8-0.8l-1.7-0.3l-1-0.5l-1.7-0.4l-1.2-0.5l-0.1-0.8l0.3,0.2l0.2-0.6l-0.6-1.1l0.3-0.7l-0.3-0.3
		l-0.5,1.4l-1.4,1.1l-1.9,0.1l-1.7-0.5l-0.2-0.6l-0.7,0.3l-0.9-0.3l-1.8-0.1l-1,0.1l-2.2,0.7l-0.8,0.4l-1.1-0.7l-1.3-0.2l-0.5-0.5
		l-0.3-0.9l-0.9,0.2l-0.2,0.8l-1.7-0.9l-0.3-0.4l-1.5,1.1l-0.7,1.1l-0.4-0.9l0.3-0.6l0.5,0.1l1.4-0.9l-0.3-0.5l-0.7,0.3l-0.4-0.7
		l-0.7,0l-0.8-1.7l-0.2,0.5l-0.9,0.3l-0.3-0.2l-0.2,0.6l-1.1-0.1l0,0.6l-0.7,0.2l-0.4-0.2l0.2-1.2l-0.3,0.1l-0.4,1.2l0.7,0.3
		l0.1,0.9l0.5,0.9l-0.2,1l-0.6-0.3l-0.1,0.5l0.6,0.2l0.4,1.3l-0.8,0.3l-0.5-0.2l-0.7,0.4l-0.4-0.3l-0.9,0.1l0-0.5l-0.4,0.4l-0.2,0.7
		l-0.4-0.5l-0.4,0.8l0.2,0.4l-0.7,0.5l-0.6,0.1l-0.2,0.7l-0.7,0.6l-0.5-0.2l-0.5,0.7l-0.4,0l-0.8,1.4l-1,0.1l-0.3-0.4l-0.6,0.8
		l-1.2-0.5l0.2-1l0.8-0.4l0.5,0l0.1-0.4l0.9-0.8l0-0.7l-1.2,1l-1-0.5l-0.1-0.4l0.4-1.6l0.8-1.1l0.1-0.9l0.2-0.2l0.1-1l-0.5-1.1
		l1-0.4l1.9-1.6l0.5,0.6l0.6,0.1l0.8-0.7l-1-0.8l-0.4-0.6l-0.8,0.1l-0.6-0.3l-0.1,0.3l-0.9,0.5l-0.4,0.9l-0.9,0.2l-0.9,1l-0.1,0.6
		l-0.7,0.4l-0.1,0.7l-0.5,0.5l-0.2,1.2l-1,0.8l0.5,0.6l-0.4,0.9l-1,0.2l-0.1,1.2l-0.9,0.4l-0.3-0.5l-0.4,0.9l-0.5,0l0.1,0.7
		l-1.2,0.4l-0.2,1.8l1.4,0.1l1.1,0.5l0.3,0.6l-0.4,1l-0.7,0.6l-0.7,0l-0.1,0.5l-0.5,0.2l0.2,0.7l-0.5,1l-1,0.9l-0.6,0l-0.6,0.3
		l-0.5-0.1l-0.4,0.4l0.1,0.5l-0.8,0.3l-0.2,0.7l-0.5-0.5l-0.6,1.4l-1-0.1l0,0.8l-0.6-0.2l-0.4,0.3l0,1l-0.7,1.6l-1.1,0.2l-0.9,0.7
		l-0.2,0.4l-0.6-0.6l-1.1,1.5l-0.3-0.5l-0.6,0.1l-0.2,0.9l-0.6,0.3l-0.7-0.2l-0.6,0.8l0.9,0.3l-1.1,1.9l-3,0.4l-1,1.6l-0.2-0.4
		l0.2-1.1l-0.6-0.2l-0.8,0.3l-0.2,0.4l-1.2,0.6l-0.6,0.8l-0.1-0.6l-0.4,0.6l-0.6-0.5l-1.4,0.9l-0.9-0.1l0.2-0.8l-0.3-0.8l-0.4,0.6
		l0,0.7l-1.5,1.9l-0.4-0.6l-0.2,0.7l-0.9-0.2l0-1.2l-0.5-0.3l-0.2,0.4l0.4,0.6l-0.3,0.8l-0.8,0.3l-0.4-1l-0.6-0.2l-0.2,0.3l0.6,0.6
		l-1.3,0.7l0.8,0.3l0,0.4l-0.6-0.4l-1,0.7l-1.7-0.3l-0.9,0.4l-0.1,0.4l-1.1,0.3l-0.7-0.3l-0.1-1.2l0.8-0.2l0.8-1.3l0.7,0.1l1.7-0.7
		l1.3,0.2l0.4,0.9l0.5-0.6l0-0.7l0.8-0.2l0.8,0.1l1.2-1.5l1.3-1.3l1.6-1.1l1.8-0.4l0.7,0.3l0.7-0.3l0.1,0.6l-0.5,0.6l0.4,0.5
		l0.2-0.7l0.9,0l0.2,0.5l0.5,0.2l0.1-0.6l-0.8-0.6l0-0.3l0.7-1.5l0.9-0.8l1.1-0.8l1.7-0.6l1.3-1l0.6,0.4l0.5-0.1l-0.2-0.7l0.2-0.7
		l1-1.3l1.3-0.8l1.1-1.1l0-0.7l1-4.7l1.3-1.2l-0.1-1l-3,1.3l-0.9-0.2l-0.2-0.6l-0.5-0.3l-0.1-0.7l-0.5,0.3l-0.4,1l0.4,1.3l-0.7,0.5
		l-0.5-0.2l-0.9-2.2l-0.6-1.1l-0.4,0l-0.3,0.7l-0.3,0.1l-0.4-0.7l-0.6-0.2l-0.2-1.1l-1.8,1l-1.6,0.7l-0.2,0.5l-1.3,0.6l-0.5-0.7
		l0.6-0.7l0-1.8l-0.2-1.9l0.9-0.7l-0.5-1.6l-0.4-0.9l-0.3-1.3l-0.6-0.6l-0.3,1.1l-0.8,0.1l-1.3,0.5l-1.5,0.1l-0.8-0.2l-0.6-0.5
		l0.1-1l-0.5-0.4l-0.7-1.5l-0.7-0.4l-0.7-1.6l0.7-0.6l0.3-1.2l-0.5,0.2l0.1-0.8l0.3-0.6l-0.5-0.7l-0.2,0.6l-0.7-0.4l0.1-1l-0.5-0.2
		l-0.2-0.7l0.2-0.9l-0.6,0.3l0.1-0.8l0.7-0.1l-0.4-1l1,0.1l0.2-1.1l0.4-0.7l2.2-2.1l0.5-0.7l0.2,0.2l0-1.1l0.9-1.6l0.7-0.6l1.1-0.1
		l0.8,0.4l1,1.2l0.8,0l1.2-0.9l1.3-1.4l0.6-0.1l0.1,0.4l1.3,0.2l1.2-0.2l1.2-1.5l0-0.4l-0.3-1.6l0-0.9l-0.7-1l-0.2-0.9l0.7,0.3
		l0.8-0.6l0.1-0.7l-0.8-1.3l-0.8,0.9l-0.6-0.2l-0.7,0.5l-0.7,0l-0.2,0.3l-0.9,0.4l-0.4,0.9l-0.4,0.3l0-1.1l-0.5-0.3l-0.5,0.8
		l-0.1-0.4l-0.8-0.7l-1.8-0.2l-1.4,0.5l-0.5,0l-1-0.6l-1.9-0.8l-0.5-0.5l-0.1-0.6l0.3-0.8l-0.6-0.8l0.3-0.7l0.5-0.3l0-1l-0.7-0.1
		l-0.5-0.4l-1.1-0.4l-0.5-0.6l-0.8-0.7l0.1-0.6l1.6-0.5l2-1l1.4-0.6l0.6,0.6l0.7,0.2l0.3-0.6l-0.4-0.2l0.1-0.6l1.8-0.6l2-0.4l1,0.1
		l0.5,0.3l-0.4,0.9l0,0.7l-0.3,0.5l0.2,0.8l0.7,0l0.8,0.3l1,0l0.2,0.3l0.6,0.1l0.6-0.2l0.7,0.4l0.9-1.2l0.5,0l0.3,0.3l0.3-0.7
		l-0.9-0.5l-1,0.2l0.2-1l-0.6-1.1l-0.7-0.4l-0.1-1l0.6-0.2l0.7,1.1l-0.2,0.7l0.3,0.6l0.8,0.8l0.3-0.7l-0.8-1.1l0.6-1.7l-0.3-0.3
		l-1,0.3l-0.9-0.2l-0.1-0.3l-0.5,0.2l-1.9-1l0.1-0.8l-0.3-1.8l-0.4-0.7l-0.7-0.6l-1.3-1.7l-0.6-0.7l-0.7-0.3l-0.8-1.2l-0.9-0.7
		l0-0.2l0.8-0.2l0.5-0.9l0.4-1.8l1.9,0.5l2.4,0l0.7-0.2l1.1-0.8l1.1-1.3l0.4-1.4l0.5-1.2l0.9-0.9l0.4-0.7l1.1-1.1l0.1,0.3l0.8,0.2
		l1.2-0.5l0.8-0.6l1.9-1.9l0.7,0l0,0.3l0.7-0.2l0.6,0.1l1.3-0.2l1.3-0.8l1.3-1.8l0.5-0.4l0.1,0.3l1.9,0.8l0.1,0.5l-0.7,0.7l-0.3,0
		l0,0.9l1-0.3l0.1-0.5l0.4-0.4l0.1,0.3l0.3-1l0.9,1l-0.2,0.7l0.6,0.2l0.3,0.4l0.5-0.7l0.9,0l0.5-0.2l1.3,0.2l0.7,0.2l-0.3,1.4
		l1.3,0.3l0.1,0.4l1.2,0.6l0-0.3l0.9-0.4l0.8,0l0,0.3l0.5,0l0.5-0.5l0.8-0.1l0.6,0.2l0.8,0.4l0.4-0.1l0.6,0.6l0.3-0.3l0.5,0.2
		L79.9,359.4z M70.3,434.5l0,0.3l-1.1-0.4l0.8-1.6l0.7-0.1l0.5-1.5l0.6,1.3l0.4-0.4l0.9,0.7l0,1l-1.3,0.2l-0.6,0.4L70.3,434.5z
		 M67,437.5l0.9-0.8l-0.8-0.2l0-0.7l0.7-0.5l0.5,0.3l0.1,0.7l0.3-0.5l0-1l0.6,0.5l0.1-0.7l0.5,0.4l0.6,0l0.5-0.4l0.8,0.6l0,1.8
		l1-0.2l-0.6,1.2l-1.3-0.4l0.5,0.8l-0.3,0.6l-0.7-0.3l0,1.2l-1,0.3l-0.3,0.5l-0.6-0.5l-0.6,1.3l-0.5,0.1l-0.5,0.6l-0.2-1.4l-0.8,0.7
		l0-0.4l-0.7-0.4l0-1.2l-0.7-0.5l0.4-1.4l1.3-0.9l0.8,0.1L67,437.5z M65.1,443.2l-0.7,1.2l-0.2-0.2L65.1,443.2z M61.3,447.3l0.5,0.1
		l-0.2,1.3l-0.9-0.2l-0.1-0.4L61.3,447.3z M46.4,450.4l-0.3,1.3l-1.2,1l0.7-1.6l0.3,0.2L46.4,450.4z M44.3,449.7l0.6,0.1l-0.1,0.7
		l-0.7,0.7l-0.5-0.6l-0.4,0.4l-0.1-1.2l0.2-0.3L44.3,449.7z M38,451.3l0,0.5l-0.4,0.3l-0.2-0.6L38,451.3z M44.1,398.7l-0.5,0.5
		l-0.1-0.5L44.1,398.7z M35.7,454.1l0.7,0.3l-0.1,0.5l-0.6-0.1L35.7,454.1z M25.9,453.7l0.1,0.7l-0.6,0.2l-0.1-0.8L25.9,453.7z
		 M25,454.5l-1.2,0.5l-0.1-0.5l0.6-0.5L25,454.5z M29.9,416.7l0.7-0.1l0.1,0.5l0.6,0l0.5,0.5l-0.2,1.7l-0.4,0.5l-0.8,0.2l-0.3,0.6
		l-1-0.9l-0.5-0.1l-1-1.1l-0.4-0.1l-0.6-0.6l-0.1-0.8l0.4-0.1l1.1,0.4l0.6-0.5l0.6,0l0.3-0.4L29.9,416.7z M22.6,454.9l0.5,0.6
		l-1.4,0.9l0,0.2l1.7-0.5l-0.1,0.5l-0.7,0.4l-1,0.2l-0.2,0.5l-1.2,0.4l-0.9-0.2l-0.7,0.4l-1.2,0.3l-0.5-0.6l1.3-0.4l0.4,0.2l1-0.3
		l-0.1-0.6l0.6-0.5l0.7,0.4l0.2-0.4l-0.8-0.3l-0.4-0.5l0.5-0.6l1.5-0.2l0.1,0.9L22.6,454.9z M13,458.2l1.6-0.8l0.2-0.5l0.6-0.4
		l0.9-0.1l0.4,0.4l0,0.8l-1.7,0.5l-1.1,1.1l-0.8,0.3L13,458.2z M9.2,459l0,0.6l-0.9-0.2l0-0.4L9.2,459z M14.1,433l-0.6,0.4l0.1-0.6
		L14.1,433z M5.6,459.3l0.1,0.6l-0.8,0.2l0.1-0.6L5.6,459.3z M19.5,393.3l1.8,1.4l1.4-0.4l0.5,0.2l0.4,0.5l0,0.7l1,0.6l0.2,0.4
		l1.3,0.5l0.8,0.5l-0.7,0.8l-0.6-0.4l-0.8,0l-0.5,0.3l-0.5,0.8l-0.3-0.9l-0.5-0.7l-0.5-0.2l-0.1-0.7l-1.1-1.1l-0.6-0.2l-1.1,0.4
		l-0.6-0.6l-0.1-0.8L19.5,393.3z M-1.3,459.4l-0.1,0.7l-0.7-0.1l0.3-0.5L-1.3,459.4z M-6,459.6l0.4,0.4l1.4,0.4l0,0.2l-1.7-0.2
		L-6,459.6z M-8.2,458l0.2-0.6l0.6-0.1l0.5,0.8l-0.4,0.5l-0.4-0.2l-0.1,0.6l-0.7-0.2l-1.7,0.2l-0.8-0.5l0.4-0.4l0.9,0.3L-8.2,458z
		 M-16.7,457.9l0.7,0.1l-0.3,0.7l-0.8-0.4l-1.3,0.5l0-1.3l0.4,0.1l0.4-0.8l0.5,0.2l-0.2,0.6L-16.7,457.9z M-19,456.5l0.3,0.4
		l-0.6,0.9l-0.7,0.1l0.2-0.6L-19,456.5z M-22.5,455.4l0.6,0.3l0.3,0.9l-0.9,0.6L-22.5,455.4z M-49.6,435.8l0.4,0.7l-0.3,0.6
		l-1.5-0.4l-0.4-1.3l0.2-0.4L-49.6,435.8z"/>
	<path display="inline" fill="#FDD0A2" stroke="#FFFFFF" d="M196.1,248.1l-13.7,98.7l-29.8-4.4l-16.1-9.3l-34.6-20.5l2.1-3.6l3-0.1
		l1.1-1.4l-0.1-3.4l-1.9-0.5l0.3-6.6l3.4-1.9l0.9-2.5l0.3-4.2l2.3-2.7l2.5-0.7l2.1-1.9l-2.3-3l-1-4.9l-1.7-3.3l0.4-2.2l1.3-2.2
		l0.3-3.3l-0.5-3.5l1.2-10.3l5.2,0.3l1.2,2.4l1.4,0.2l2-2.7l2.7-13.9l48.3,8.3L196.1,248.1z"/>
	<path display="inline" fill="#FDAE6B" stroke="#FFFFFF" d="M396.8,269.1l60-2.2l1.4,3.3l-2,2.3l-2,3.4l9-0.6l-0.2,3.3l-2,1.1
		l-0.3,2.7l-2.4,3.1l0.5,4.2l-1.2,3.2l-1.4,0.6l0.9,1.5l-2.2,1.5l-0.8,3l-1.4,0.9l0.4,3.5l-2.5,1.1l0.1,1.2l-2.8,3l1,1.9l-2.4,2.9
		l-2,5.5l2.6,2.2l-1.2,1.5l1,3.6l-1,2.5l-35.5,1.1l-6.3,0.1l-0.2-9.3l-2.1-0.7l-2.8,0.9l-1.5-1.6l0.3-30.9l-2.9-19.4L396.8,269.1z"
		/>
	<path display="inline" fill="#FDD0A2" stroke="#FFFFFF" d="M29.7,122.4l10.6,3l16.6,4.9l12.9,3.4l-7.5,29.5l-5.6,21.6l13,19.6
		l12.6,19l10.2,15.2l7.4,11.2l13.3,20.2l-0.4,2.2l1.7,3.3l1,4.9l2.3,3l-2.1,1.9l-2.5,0.7l-2.3,2.7l-0.3,4.2l-0.9,2.5l-3.4,1.9
		l-0.3,6.6l1.9,0.5l0.1,3.4l-1.1,1.4l-3,0.1l-19.3-2.3L69,304.8l-1.2-2.6l0.7-3.6l-0.1-4.5l-1.3-3.5l-3.4-5.1l-4.7-5.2l-1.3,0.8
		l-2-1.2l0.7-1.6l-1.6-4.1l-3.5-0.1l-5.2-4l-0.3-2.3l-3.2-3.5l-4.4-1l-3.3-2.1l-4.7-0.7l-1.8-2.9l1.8-4.6l-0.6-1l1.4-3.2l-2.9-3.5
		l0.8-3.5l-1.3-0.5l-1.4-3.6l-1.4-1.1l-0.2-2l-3.3-8.4l-1.9-2.7l1-5.6l0.9,0.8l1.9-3l-1.1-3.5l-2.4-0.3l-2.3-3.6l-0.5-2.4l0.8-2
		l-0.7-3.1l1.3-4.5l2.4,0.7l0.8-6.5L20,191l-1.1,3l-2.8-0.1l-2.4-3.2l0.7-4.1l-1.1-3.7l-2.1-2.7l-0.8-2.6L8,172l1-1.1L9,164.7
		l1.7-2.9l0.3-5l-1.9-5.6l-2.4-3.6l0.3-3.2l5.4-6.4l1.4-2.3l0-2.1l2.7-4.7l0.4-4.9l-1-1.5l1.7-3.5L29.7,122.4z"/>
	<path display="inline" fill="#FDD0A2" stroke="#FFFFFF" d="M220.3,180.2l28.4,3.3l21.8,1.9l26,1.9l-1.1,17.6l-3.2,52.9l-13.2-1
		l-18.4-1.4l-34.8-3.5l-7.6-1l-22.2-2.9l2.8-20.4l0-1.9l2.1-14.8l4.6-32.7L220.3,180.2z"/>
	<path display="inline" fill="#FDD0A2" stroke="#FFFFFF" d="M668.1,136.3l15.7-3.7l0.1,0.3l2.6,10.1l-0.3,1.8l-1.2,0l-5.2,2.7
		l-6.7,1.3l-2.3,3l-2.9,1.5l-3.1,2.8l-1.4-1.8l2.7-2.6l-1.2-1.2l-2.3-13.1L668.1,136.3z"/>
	<path display="inline" fill="#FDAE6B" stroke="#FFFFFF" d="M646.9,181.6l-0.8,2.3l-1.1,1.4l0.9,2.7l2.5,2.1l1.4,4.1l3.8,3.8
		l1.3-0.1l1.9,5.8l-8.6,1.7l-5.9-21.4l1.8-2.4L646.9,181.6z"/>
	<path display="inline" fill="#FDD0A2" stroke="#FFFFFF" d="M628.7,200l2,1.4l-1.4,2.1l-1.5-2.3L628.7,200z"/>
	<path display="inline" fill="#FDD0A2" stroke="#FFFFFF" d="M531.9,357.4l7.3-0.9l2.6,4.8l20.5-1.4l19.2-1.3l1.3,3.6l1.8-0.4
		l0.1-3.6l-1-3.1l1.2-1.5l3.6,0.9l4.2,0l2.1,7.3l3.2,8.1l6.1,10.4l8.6,10.7l-0.9,1l1.2,5.4l3.9,5.6l6.5,11.5l1.6,3.7l0.6,3.9
		l0.7,14.4l-1.4,0.5l-0.8,4.6l0.7,1.3l-2.5,3.7l-1.3-0.5l-2.7,1.8l-4.9,1.5l-1.7-1.5l0.3-2.7l-4.7-7l-3-1l-2.2,1.4l-2.5-3.9l-1-3.4
		l-3.8-3.4l-1.1-2.4l0-3.7l-1.9-0.4l0.7,2.1l-1.5,0.8l-6.3-8.6l-2.3-2.1l3.7-7.5l-3,0.8l-1.7,2.5l-2.5-3.1l1.4-9.8l-0.6-7.9
		l-2.1-1.6l-0.9-2.5l-3-0.2l-4-3.7l-3-1.3l-0.5-2.5l-2-0.7l-1.9-2.6l-6.2-3.1l-4.9,1.5l0.6,2.6l-1.7-0.3l-5.9,4l-6.6,1.5l0-1.9
		l-1.8-2.1l-8.4-4.3l-5.8-1.6l-5.1-0.1l-4.1,0.8l-9,2.5l2-2.8l-1.3-1.3l0.3-2.9l-3.6-3l0.3-2.3L531.9,357.4z"/>
	<path display="inline" fill="#FEEDDE" stroke="#FFFFFF" d="M557.8,283.3l-2.5,4.1l0,1.8l5.2,3.1l1.4-0.5l2.7,3.5l0.7,1.9l2.8,3.3
		l3.6,1.7l2.3,3l4.3,2.4l0.1,2l3,2.9l4.3,2.1l1.4,2.7l0.7,3.7l2.2,0.9l3,4.3l0.5,2.9l3.6,1l-2.7,6.5l-0.2,3.1l-1.1,2.9l0.3,2.8
		l-1.4,1.5l0.5,7.5l-4.2,0l-3.6-0.9l-1.2,1.5l1,3.1l-0.1,3.6l-1.8,0.4l-1.3-3.6l-19.2,1.3l-20.5,1.4l-2.6-4.8l-2.2-4.6l0.5-4.7
		l-2.1-5.1l0.9-3.1l-0.3-2.2l2.2-2.5l-1.8-0.9l0.4-1.8l-1.9-2.6l-2.2-4.7l-6-21.7l-4.1-14.8l18.1-2.2l9.9-1.2L557.8,283.3z"/>
	<path display="inline" fill="#E6550D" stroke="#FFFFFF" d="M234.5,459.3l-4.1-1.5l-0.6-1.5l0.5-3.9l-2.9-6.7l2.2-2.2l1.6-3.1
		l-1.2-2l0.4-2.1l4.6,2.5l5.1,1.8l3.2,2.6l0,2.3l4.7,3.7l-2.9,3.1l-5.1,1.5l-3.6,2.3L234.5,459.3z M218.7,423.2l1.9,2.4l2.4-1.1
		l5.3,2.7l-0.8,2.5l-5.4,1.3l-1.1-0.5l-0.3-3l-2.8-0.7l-1.1-1.7L218.7,423.2z M212.2,420l-1.6,1.8l-3.8,0l1.2-2L212.2,420z
		 M196.4,411.6l1.8,4.1l-0.9,2.4l-3.5,0.4l-2.3-4.9l2.1-0.1L196.4,411.6z M171.6,402.2l1.9,0.2l0.9,1.8l-0.6,2.6l-1.9,1.6l-5.2-2
		l0.7-2.8L171.6,402.2z"/>
	<path display="inline" fill="#FDAE6B" stroke="#FFFFFF" d="M144.9,25.9l-3.7,17.3l2.7,5.5l-0.9,4.7l1.8,2.5l2.2,1.2l0,1.3l3.4,5.5
		l0.1,2l2.7,2.4l-0.1,1.1l3.4,0.6l-2.9,6l-1.1,4l0.7,2.9l-2.5,1.4l0.5,1.9l-1,1.8l2.2,2.3l3.4-1.8l1.5-1.6l1.8,2.1l-0.6,1.3l0.6,3.5
		l1.3,3.9l1.2,1.5l-0.7,3.3l1.1,1.7l2.5,0.7l0.6,5.9l1.2,1.2l1.6-1.4l3.8,0.8l3.1-1l1.5,1.1l3-0.3l0.4,1l2.6-0.2l3.4-3.1l1.5,3.3
		l1.9,2.2l-6.8,42.9l-14.2-2.3l-23.8-4.3l-37.6-7.9l7-31.3l2.9-5.3l-0.7-1.6l-2.3-0.8l-0.3-2.5l3.8-5.5l1.4-0.3l1.8-2.2l0.2-1.6
		l1.8-1.7l1.4-2.8l3.6-4.5l-0.5-2.5l-2.5-1.8l-1-3.3l0.6-3l-0.9-3.3l0.5-1.4l5-22.7l4.8-20.8L144.9,25.9z"/>
	<path display="inline" fill="#FEEDDE" stroke="#FFFFFF" d="M444.1,161.5l23.6-1.3l12.6-1l-0.1,3.4l2.3,3.8l2.6,6.2l3.6,41.4
		l-1.2,3.3l2,3.6l0.5,3.1l-1.5,2.7l-0.2,2.3l-2.1,4l-1.5,0.4l0.6,2.2l-1,1l-0.5,4.2l0.5,1.1l-1.6,2.7l1.5,3l-5.5,2.1l-0.4,1.9
		l1.5,2.2l-1.6,1.6l-5.2-2.3l-1.6,0.3l-1.9,3.2l0.7,0.9l-2.2,0l-3.4-4.8l1-1.2l-1.4-3.3l-0.2-2.7l-4.7-3.5l-1.5,0.5l-1.6-2.2
		l-4.2-3.3l-0.1-2.8l2-4.7l-0.5-1.6l1.2-2.2l-2-1.1l-3-0.6l-1.4,1.7l-1.1-1l-1.2-5.7l-4.7-3.5l-4.3-4.3l-1.9-5.3l-0.3-3.6l1-2.6
		l0.1-3.2l3.6-2.1l0.2-2.7l1.6-1.8l0.1-3.1l-2.3-2.4l0.7-3.1l5-1.1l3.9-2.4l0.3-2.7l1.6-1.3l0.3-3.4l-0.5-2.2l-3-1.6l-0.5-1.8
		L444.1,161.5z"/>
	<path display="inline" fill="#FDD0A2" stroke="#FFFFFF" d="M504.7,169.8l15.2-1.7l0.1,1.1l2.5,20.9l2.7,24.5l-0.9,0.9l1.7,4.7
		l-2.3,0.4l-2.3,1.9l-3.5-0.4l0.5,3.4l-2.1,1.7l-0.6,2.3l-2.3,1.1l-0.8,4.5l-1.4,1.3l-3.2-1.3l-0.7-2l-2.7,2.5l0.4,1.9l-3,1
		l-1.1-1.6l-3.3,2.1l-0.9,1.9l-3.7-2.3l-1.7,0.7l-1.3-1.1l-1,1.3l-3.4,0.5l-1.1,1.7l-0.5-1.1l0.5-4.2l1-1l-0.6-2.2l1.5-0.4l2.1-4
		l0.2-2.3l1.5-2.7l-0.5-3.1l-2-3.6l1.2-3.3l-3.6-41.4l1.4,1l4-0.4l3.6-2.4L504.7,169.8z"/>
	<path display="inline" fill="#FDAE6B" stroke="#FFFFFF" d="M433.9,144.6l1.9-0.1l0.3,2.6l2,1.6l-1.4,2.2l0.6,3.9l1.1,2.7l4.6,1.8
		l1,2.2l3,3l0.5,1.8l3,1.6l0.5,2.2l-0.3,3.4l-1.6,1.3l-0.3,2.7l-3.9,2.4l-5,1.1l-0.7,3.1l2.3,2.4l-0.1,3.1l-1.6,1.8l-0.2,2.7
		l-3.6,2.1l-0.1,3.2l-1.5-0.5l-2.8-3.4l-1.4,0.2l-18.7,1.2l-18.1,0.6l-14.9-0.2l-1.5-2.3l0.7-4.5l-1.3-3.9l0.1-4.4l-2.3-1.5
		l-0.4-2.4l0.8-2.1l-0.8-3.1l-1.8-1.2l-2.3-7.9l-2.4-3.9l1.1-2.6l0.4-3.5l1-1.2l-1.6-1.7l0.4-3.1l-0.7-1.4l1.7-0.4L433.9,144.6z"/>
	<path display="inline" fill="#FDAE6B" stroke="#FFFFFF" d="M297.4,205.2l87.4,2.4l1.3,1.6l4.3,1.3l-2.9,5.1l1.7,1.7l2.2,4.1
		l2.9,0.8l0.5,38l-75.5-1.1l-27-1.3l3.2-52.9L297.4,205.2z"/>
	<path display="inline" fill="#FDD0A2" stroke="#FFFFFF" d="M538.2,218.9l3.3,2l2-1.5l5.2,0.7l1.2-1.9l1.8-0.8l1,2.9l1.6,0.3
		l2.2,2.1l0.4,5.3l2.1,3.1l2.5,2.3l1,1.9l2.9,1.6l1.8,0l-4.5,5.4l-4.6,3.3l0.2,1.3l-1.9,1.4l0.1,1.6l-2.5,1l-0.6,2l-7,3.5l-0.2,0.3
		l-11.8,1.3l-10.3,0.6l-2.7,0.5l-15.3,0.9l-17.4,2l-3.1-0.5l0.5,3.2l-17.2,1.1l-1.7,0.3l0.6-2.3l2.1,0.6l0.6-7.2l-0.7-0.9l1.9-3.2
		l1.6-0.3l5.2,2.3l1.6-1.6l-1.5-2.2l0.4-1.9l5.5-2.1l-1.5-3l1.6-2.7l1.1-1.7l3.4-0.5l1-1.3l1.3,1.1l1.7-0.7l3.7,2.3l0.9-1.9l3.3-2.1
		l1.1,1.6l3-1l-0.4-1.9l2.7-2.5l0.7,2l3.2,1.3l1.4-1.3l0.8-4.5l2.3-1.1l0.6-2.3l2.1-1.7l-0.5-3.4l3.5,0.4l2.3-1.9l2.3-0.4l-1.7-4.7
		l0.9-0.9l5.1-0.6l3.2,3.3l0.4,1.5L538.2,218.9z"/>
	<path display="inline" fill="#FD8D3C" stroke="#FFFFFF" d="M410.4,330.1l35.5-1.1l1.5,1.9l-1,0.8l0,3.6l2.3,2.1l0.6,5.2l-1.6,4.1
		l-3.3,2.7l-0.7,4l-1.5-0.3l0.1,6.4l-1.8,0.3l1.2,3.4l-1,1.3l28.1-1.6l-1.1,5.8l2.7,3.7l0.8,2.8l1.9,1.7l-4.3,2.7l-0.2,1.7l3.7,0.9
		l1.4-2.9l3.3,2.5l-0.1,2.2l-1.8,1.1l-3.5-0.6l0.5,1.6l-1,2.6l3.1,2l4.7,0.3l1.9,2.5l1.4,0.3L480,397l-2.7-0.4l-2.5-2.9l-5.7-1.2
		l-0.2-3l-2.7,1.1l0.3,2.5l-1.1,2.4l-2,0.5l-1.7-2.5l-3.5,0.1l-1.1,2.7l-2.3,0.9l-2.6-1.5l-2-0.1l-2.1-4.2l-3.5-1.7l-1.3,0.3
		l-1.5-3.6l-4,0.7l-0.2-2.2l-3.8,2.3l0.6,1.6l-2.9,1.6l-4.7-0.6l-5.5-2.2l-3.8-0.9l-8.2,1.1l-1.1,0.7l-1.4-1.7l3.4-6.3l-1.2-3.3
		l1-1.8l-0.6-2.4l1.4-1.9l1.4-4.5l-0.3-3.7l-4.2-7l-0.2-3.8l-3.3-3.8l-0.4-18L410.4,330.1z"/>
	<path display="inline" fill="#FD8D3C" stroke="#FFFFFF" d="M692.6,111.4l-1.8-0.8l-0.3-1.7l-2.5-1.4l-6.8-22l-3.5-10.8l4.5-3.7
		l-1.2-1l1.2-3.1l1.7-1.7l-0.7-0.9l1.4-2.1l-1.4-2.8l-0.1-4.7l1.4-2l-0.6-4.9l5.2-15.3l2.2-0.1l1,3.1l1.8,0.7l3.2-2.9l2.3-0.7
		l1.3-1.7l4,1.7l2.5,1.6l5.8,18.6l1.1,4.6l4.4-0.1l0,2.1l1.6,1.5l-0.3,1.9l2.5,2l2-1.2l4,5.3l-1.6,3.4l-1.7-0.6l-0.6,2.2L723,74
		l0.3,1.6l-2.3,0.5l-2.4,4.6l-1.6-2.2l-1.3,0.2l1.4,2.5l-2.4,2.1l-1.3-1.9l-1,1.5l-3.1,0.9l-0.8-2.5l-1.7,1.1l0.8,1.7l-0.6,4.2
		l0.6,0.9l-1.6,2.7l-2.5-0.1l-0.7,2.5l-1.8,0.8l-1,2.2l-2,0.2l-1-1.7l-1.9,3.7l1.2,1.6l-1.8,1.2l0.3,1.6l-1.7,2.6L692.6,111.4z"/>
	<path display="inline" fill="#FDD0A2" stroke="#FFFFFF" d="M646.2,215.1l-0.3,0.1l-0.4,0.1L646.2,215.1z M594.2,193.5l48.2-9.4
		l5.9,21.4l8.6-1.7l-1,7.8l-2,0.7l-3.4,1.8l-2.7,1.4l-0.5-2.8l-1.3-0.9l1.3-1.6l-2.6-2.4l-0.4,1.4l-2.8,0.3l-1.6-2.9l0.9-0.2
		l-0.8-4.1l0.5-1.8l-2.3-5.2l0.8-3.5l2.1-1l-0.3-3.4l-1.6,0.7l0.3,1.7l-3,2.9l-0.6,2.2l0.8,5.1l-0.8,2.6l1.4,3.8l2.3,2.4l0.2,2.1
		l1.5,1.8l-0.3,1.5l-3.6-2.1l-4.6-0.4l-1.8-2.4l-2.2,2l-1.4-1.9l1.4-3l0.6-3l1.4-2.1l-2-1.4l-0.9,1.3l-2.1-1.3l-2.9-0.3l-0.5-2.6
		l-1.7-1.1l-2.1,0.1l-2.4-4.5l-2.2,0.4l-2.5-1.2l-1,1.6l-2.2,0.3l-0.1,2l-4.1-0.5l-2.1,3l-1.8-0.3l-2.1,3.4l-2.3,2.1L594.2,193.5z"
		/>
	<path display="inline" fill="#FDD0A2" stroke="#FFFFFF" d="M690.8,115l1.3,0l1.3,2.8l0.1,2.6l-1.4,2.8l0.6,2.6l2.8-0.4l2.4,2.2
		l0.3,2.2l1.5,0.2l0.7,1.9l3.9,0.7l3.6-2.7l-0.2,2.6l-5.4,3.7l-2.2,0.7l-1.7-1.2l-1.9,1l0.3,1.2l-2.1,1.4l-1.8-2.8l-0.5-0.5
		l-1.6-0.9l-1.7-3.8l-1.8,0.5l-3.3,1.1l-0.1-0.3l-15.7,3.7l-5.5,1.1l-0.4-0.6l0.3-11.9l10.1-2.2l14.5-3.2l0.9-1.9L690.8,115z"/>
	<path display="inline" fill="#FDAE6B" stroke="#FFFFFF" d="M537.3,166.4l-17.3,2.8l-0.1-1.1l-15.2,1.7l-10.7,1.1l2.4-2.6l1.4-4.1
		l1.4-2.6l0.8-3.5l0.2-4.9l-0.8-5.1l-4.7-9.8l0.8-3.9l-1.3-4.5l2.4-5l0.2-4l-0.6-2.1l1.9-1.1l0-2.9l3.1-1.1l2.1-3.4l0.5,6.3l1.3,0.1
		l1.3-3.3l-0.5-5.3l0.9-1.4l3.2-1.2l-1.5-3.6l1.8-3.4l2.7-0.5l3.3,1.6l3-0.1l1.8,2.3l2.3-0.1l4.1,1.8l1.3-0.3l2.6,3.4l-1.4,2.2
		l1.9,2.3l1,2.9l0.1,6.6l-2.3,1.9l-0.2,3.4l-2.8,1.5l-1.1,4.2l0.8,1.4l3.2,1l2-2.5l2.1-4.8l4-2.3l2.3,1l1.6,2.3l2.3,7l0.7,3.6l2,4.2
		l-0.4,6.5l-1.9,1.2l-0.4-2.3l-1.3,0.9l-0.9,5.5l-2.3,2.4l-0.2,4.1l-2.8,3.8L537.3,166.4z M503.2,100l0.4,2.1l-1.6,0.6l0.3-3
		L503.2,100z M479,113.6l-2-1.6l0.9-2.6l-2.9-0.1l0.9-2.5l-0.1-3.1l-2.7-1.9l-1.6-2.1l-5.3-1.3l-1.5,0.7l-5.4-2.2l-12.7-2.7
		l-1.5-2.9l-2.3-0.9l4.6-2.1l2-2.2l5.2-1.2l3.2-2.8l1.6-0.2l1.2-1.9l3.5-2.8l1.7-2.3l2.7-1.6l2.8,1l-4.2,5.7l-1,1.9l0.3,3.2l2.1-2.7
		l4.1,0l3.4,1.4l3.3,4.5l1.7,0.7l3-1l0.8,1l3.1,0.3l6-4.6l3.3-0.7l4.5-0.3l2.9-1.7l2.3-0.4l1,4.8l2.4,0.4l2.3-1l1.1,1l1.4-1.6
		l3.4-0.9l0.8,6l1.9,2.4l2.5,0.4l0-1.7l2.3-0.3l1.5,1.6l-0.9,1.5l-6.7-0.3l-3.1,1.2l-3.7-1.7l-0.8,2l0.7,1.6l-1.6-0.2l-2.5-2.1
		l-4.1-1l-2,0.1l-1.7,2.5l-3.1,0.9l-3.5-0.1L493,98l-0.1,1.9l-3.6,2l0-2.3l-1.7-0.3l-0.4,2.4l-2.8,0.4l-1.2,1.2l-1.5,4.3l-3,5.6
		L479,113.6z M460.3,64.8l-2.8,2.4l-1.5,0.4l0-1.8l7.1-4.6l-1.2,2.9L460.3,64.8z"/>
	<path display="inline" fill="#FDAE6B" stroke="#FFFFFF" d="M423.5,89.1l-1-0.7l-2.4,1.5l0.4,10.3l-0.7,1.1l-3.4,1.6l-2.7,3.8
		l-0.1,2.5l1.4,0.1l1.6,2.1l-1.3,2.7l0.4,3l-0.7,6.4l3.4,3l2.6,0.2l1.4,1.9l3.9,1.8l0.7,2.3l3.7,2.8l2,0.6l2.6,3.7l-0.2,2.8l0.8,2
		l-1.9,0.1l-64,1.4l0.1-31.4l-2.8-2l-2.1-3.4l3.4-3.7l0.3-2l-0.4-7l-1.4-1.8l-1-3.8l0.2-4.7l-0.5-0.8l-0.3-11.1l-2.3-5.9l-0.9-3.3
		l-0.3-7l0.8-2.4l-1.5-5.5l24.1,0l-0.1-6.6l2.3,0.2l1.5,1.3l1.6,8.9l1.2,1l3.8,0.2l0.5,0.8l4.5,0.3l0.6,1.9l3.8-0.6l0-0.8l3-1
		l2.6,0.3l3,1.3l0.9,1.8l1.7-0.3l1.7,3.8l0.7-1.6l2.9-0.9l0.6,1.6l3.5,1l0.1,1.5l1.8,1.2l3.5-0.8l2-1.8l2.8-1.2l1.2,2.5l2-0.7
		l2.4,0.4l2.7-0.5l3.3,2l3-0.6l-0.2,1l-3.8,2.4l-5.4,2l-3.5,2l-4.9,4.7l-2.1,2.9l-3.2,3.3l-5.2,4.4L423.5,89.1z"/>
	<path display="inline" fill="#FDAE6B" stroke="#FFFFFF" d="M482.2,291.6l3.8-0.3l1.6,1.7l-0.4,19.4l-0.7,33.5l3.3,26.6l-1.6,0.9
		l-3.6-0.1l-1.6-1l-3.6,1l-4.9,2.4l-1.5,1.3l-1.9-1.7l-0.8-2.8l-2.7-3.7l1.1-5.8l-28.1,1.6l1-1.3l-1.2-3.4l1.8-0.3l-0.1-6.4l1.5,0.3
		l0.7-4l3.3-2.7l1.6-4.1l-0.6-5.2l-2.3-2.1l0-3.6l1-0.8l-1.5-1.9l1-2.5l-1-3.6l1.2-1.5l-2.6-2.2l2-5.5l2.4-2.9l-1-1.9l2.8-3
		l-0.1-1.2l2.5-1.1l-0.4-3.5l1.4-0.9l0.8-3l2.2-1.5l-0.9-1.5L482.2,291.6z"/>
	<path display="inline" fill="#FDD0A2" stroke="#FFFFFF" d="M430.3,195.7l1.4-0.2l2.8,3.4l1.5,0.5l-1,2.6l0.3,3.6l1.9,5.3l4.3,4.3
		l4.7,3.5l1.2,5.7l1.1,1l1.4-1.7l3,0.6l2,1.1l-1.2,2.2l0.5,1.6l-2,4.7l0.1,2.8l4.2,3.3l1.6,2.2l1.5-0.5l4.7,3.5l0.2,2.7l1.4,3.3
		l-1,1.2l3.4,4.8l2.2,0l-0.6,7.2l-2.1-0.6l-0.6,2.3l-0.9,0.1l-0.8,0.1l0.4,4.3l-2.5,4.6l-9,0.6l2-3.4l2-2.3l-1.4-3.3l-60,2.2l-2,0
		l-0.1-8.8l-0.5-38l-2.9-0.8l-2.2-4.1l-1.7-1.7l2.9-5.1l-4.3-1.3l-1.3-1.6l-3.3-4.6l-2.8-5.7l14.9,0.2l18.1-0.6L430.3,195.7z"/>
	<path display="inline" fill="#FD8D3C" stroke="#FFFFFF" d="M282.4,46.4L280.8,66l-2.9,33.2l-1.3,16.5l-0.2,0l-22.8-2.3l-38.7-4.7
		l-24-3.6l-1.4,9.1l-1.9-2.2l-1.5-3.3l-3.4,3.1l-2.6,0.2l-0.4-1l-3,0.3l-1.5-1.1l-3.1,1l-3.8-0.8l-1.6,1.4l-1.2-1.2l-0.6-5.9
		l-2.5-0.7l-1.1-1.7l0.7-3.3l-1.2-1.5l-1.3-3.9l-0.6-3.5l0.6-1.3l-1.8-2.1l-1.5,1.6l-3.4,1.8l-2.2-2.3l1-1.8l-0.5-1.9l2.5-1.4
		l-0.7-2.9l1.1-4l2.9-6l-3.4-0.6l0.1-1.1l-2.7-2.4l-0.1-2l-3.4-5.5l0-1.3l-2.2-1.2l-1.8-2.5l0.9-4.7l-2.7-5.5l3.7-17.3l51.8,9.9
		l23.5,3.5L282.4,46.4z"/>
	<path display="inline" fill="#FDAE6B" stroke="#FFFFFF" d="M282.7,151.2l21.5,1.6l39.7,1.7l0.4,0.9l6.5,3.3l1.6-1.7l1.8,0.4l6,0.1
		l6.7,3.3l0.8,2.5l2.3,0.5l2.3,7.9l1.8,1.2l0.8,3.1l-0.8,2.1l0.4,2.4l2.3,1.5l-0.1,4.4l1.3,3.9l-0.7,4.5l1.5,2.3l2.8,5.7l3.3,4.6
		l-87.4-2.4l-2-0.1l1.1-17.6l-26-1.9l3-35L282.7,151.2z"/>
	<path display="inline" fill="#FDD0A2" stroke="#FFFFFF" d="M107,142.6l37.6,7.9l-16.7,86.4l-2.7,13.9l-2,2.7l-1.4-0.2l-1.2-2.4
		l-5.2-0.3l-1.2,10.3l0.5,3.5l-0.3,3.3l-1.3,2.2l-13.3-20.2l-7.4-11.2l-10.2-15.2l-12.6-19l-13-19.6l5.6-21.6l7.5-29.5l16.3,4.2
		L107,142.6z"/>
	<path display="inline" fill="#FDAE6B" stroke="#FFFFFF" d="M677.8,74.7l3.5,10.8l6.8,22l2.5,1.4l0.3,1.7l1.8,0.8l-0.6,3.5l-1.3,0
		l-2.8,2.6l-0.9,1.9l-14.5,3.2l-1.4-1l-0.5-2.6l0.8-1.2l-0.7-2.4l-0.9-7.4l1.3-3.9l0.1-4.1l0.7-1.7l-1.1-4.2l3.6-2.6l1.2-3.4
		l-1.8-2.5l0.9-3.2l-0.6-1.6l0.5-4.8l2.9-0.3L677.8,74.7z"/>
	<path display="inline" fill="#FDAE6B" stroke="#FFFFFF" d="M656.9,155.2l4.8,1.4l-0.4,5.3l-1.8,1.6l-0.5,2.9l3.8,0.5l0.7,1.9
		l0.6,9.6l-2.5,7.8l-2.2,2.6l-1.4,4.9l-1.9-2.5l-4.1-0.6l-5.5-2.7l-0.8-2.5l-0.2-0.4l0.5-1.1l0.8-2.3l3.2-2.2L650,178l3.3-3.7
		l0.3-1.6l-4.4-2.7l-0.6-2.1l-1.7-0.2l-0.6-1.9l1.3-3.4l-1.4-1.6l2.4-4.3l0.3-2l1.4-1.6L656.9,155.2z"/>
	<path display="inline" fill="#E6550D" stroke="#FFFFFF" d="M218.3,251l7.6,1l34.8,3.5l18.4,1.4l-0.6,8.8l-0.5,0l-3.3,43.6
		l-1.6,17.7l-1.3,17.5l-52-4.9l-0.6,1.7l1.5,2.2l-24.7-3l-1,7.9l-12.3-1.6l13.7-98.7L218.3,251z"/>
	<path display="inline" fill="#FDD0A2" stroke="#FFFFFF" d="M652.1,86.5l1,3.5l0.1,3.3l1.9,2.8l0.5,3.3l-0.6,3.8l2.2,4.4l-0.3,1.6
		l2.6,2.3l2.5,11.9l0.5,1.5l-0.3,11.9l0.4,0.6l2.3,13.1l1.2,1.2l-2.7,2.6l1.4,1.8l5.8,0.1l0.9-1.3l4.7-1.2l2.2-1.2l3.2-3.7l0.8,1.9
		l2.2,0.3l-4,3.7l-8.9,6.2l-3.9,1.7l-2.8,0.5l-1.8,1.3l-1.8-2.6l0.4-5.3l-4.8-1.4l-6.7-2.4l-0.8-1.1l-2,0.3l-2.9-2.4l-0.3-2.6
		l-2-1.6l-0.9,0.3l-1.9-2l-55.6,10.9l-0.8-4.4l0-0.3l6.9-6.3l0.8-2.6l2.2-2.1l-1.5-2.8l-1.1-0.4l-1.6-4.6l6.9-3.3l6.5-1.1l2.7,0
		l3.2,1.3l1.6-1.1l5.4-1l3-1.9l2.8-3.8l2.2-0.6l-0.9-4.7l0.6-3l-3.1-1.3l0.1-2.3l4.3-3.9l1.3-2.9l4.6-7l4.8-4.1l8.3-1.4L652.1,86.5z
		"/>
	<path display="inline" fill="#FDD0A2" stroke="#FFFFFF" d="M583.3,251.8l9.4-1.2l10.7-1.7l49.6-9.9l3.1,6.5l-4,0.2l-0.3,1l-4.4,2
		l-0.5,1.1l-3,0.9l0.4,1.2l3.6-1.6l0.7,0.6l3.9-1.7l1.7,1.3l2.3-1.2l1.8,4l-0.4,2.2l-1.6,0.5l-2.6,5l-4.6,1.2l-0.1,3.1l2.6,2.5
		l1.7,0.2l-2,5.4l-2.6,0l-4.3,1.4l-2.8,1.7l-4.2,4.3l-3,5.1l-1,5.9l-3.2-0.7l-4.9,2.1l-18.9-13.6l-15.8,2.3l-0.1-2L588,277l-1.3,1.3
		l-0.4-1.8l-17.4,1.8l-3.7,1.2l-2.8,2l-4.7,1.8l-7.1,1.2l-9.9,1.2l-0.1-4.2l2.7-0.7l0.7-3l3.1-3l3.8-0.6l3.1-3.1l3.5-1.4l2.5-4.3
		l1.7-1.4l0.6,1.7l5-4.1l2.6,0.3l1.3-3.5l2.4-1.2l0-4.2L583.3,251.8z"/>
	<path display="inline" fill="#E6550D" stroke="#FFFFFF" d="M361.3,50.3l1.5,5.5l-0.8,2.4l0.3,7l0.9,3.3l2.3,5.9l0.3,11.1l0.5,0.8
		l-0.2,4.7l1,3.8l1.4,1.8l0.4,7l-90.9-4.3l2.9-33.2l1.6-19.6L361.3,50.3z"/>
	<path display="inline" fill="#FDD0A2" stroke="#FFFFFF" d="M574.2,156.6l3.8,23.3l-1.8,1.3l1.2,1.8l0.4,2.7l-1.1,4.5l-0.2,6.6
		l-4.2,6.4l-1.5,1l-1.6-0.9l-1.1,2.7l-1.5,0.1l-1.2,3.6l0.7,1.9l-1.1,1.8l-2.4-2.4l-1.9,4.6l1,2.6l-1.5,1.2l-0.2,2.4l-3.5,0.9
		l-2.2-2.1l-1.6-0.3l-1-2.9l-1.8,0.8l-1.2,1.9l-5.2-0.7l-2,1.5l-3.3-2l-4.3-0.1l-0.4-1.5l-3.2-3.3l-5.1,0.6l-2.7-24.5l-2.5-20.9
		l17.3-2.8l5.3,1.7l1.9,1.2l1.1-1.5l3.2,2.4l1.9,0.6l5.6-3.2l3.6,0l3.3-3.8l5-4L574.2,156.6z"/>
	<path display="inline" fill="#FDD0A2" stroke="#FFFFFF" d="M319.2,259.3l75.5,1.1l0.1,8.8l2.9,19.4l-0.3,30.9l-5.6-1.8l-1.4-2
		l-3.7-1.7l-0.9,1.5l-3.7-0.1l-0.8-1l-3.4,1.7l-1.4-1l-3.1,0.9l-2.8,2.7l-1.1-1.5l-3-1.3l-3.2,0l-1-2l-3.7,3.9l-1.2-2.2l-1.7,0.7
		l-1.2-1.5l-3.4-1.4l-2.6,2.3l-1.1-2.4l-2-0.3l-1.1-2l-2.7-0.8l-1.8,1.6l-1.1-1.5l-2.8,0.1l-3.1-1.6l-2.9,0.1l-0.9-3.4l-4.5-0.4
		l-1.7,0.5l-3.1-3.5l-1.1,0.1l1.4-34.1l-25.2-1.3l-16.5-1.1l0.6-8.8l13.2,1L319.2,259.3z"/>
	<path display="inline" fill="#FDD0A2" stroke="#FFFFFF" d="M50.6,52.5l1.1,0.1l2,2.5l0.5,2.3l-0.9,5.2l5.5,3.6l5.9-1.2l3.3,0.6
		l3.5,1.9l0.1,1.2l7.1-0.7l1.3,1.2l3.6,0.5l3.3-0.9l5.5-0.2l4.8,0.8l1.9-0.7l24.4,5.8l1,3.3l2.5,1.8l0.5,2.5l-3.6,4.5l-1.4,2.8
		l-1.8,1.7l-0.2,1.6l-1.8,2.2l-1.4,0.3l-3.8,5.5l0.3,2.5l2.3,0.8l0.7,1.6l-2.9,5.3l-7,31.3l-21-4.7l-16.3-4.2l-12.9-3.4l-16.6-4.9
		l-10.6-3l-12.1-3.5l-1.2-2.5l0.7-5.7l1.4-3.7l-0.8-3.5l2-2.4l2.2-4.2l3.2-4.2l2.1-4L33,74.9l0.4-2l3.1-5.9l3.1-8.5l0.8-4.9l1.4-2.7
		l5.4-1.1l1.5,2.5L50.6,52.5z"/>
	<path display="inline" fill="#FDAE6B" stroke="#FFFFFF" d="M582.9,150.2l0.8,4.4l55.6-10.9l1.9,2l0.9-0.3l2,1.6l0.3,2.6l2.9,2.4
		l2-0.3l0.8,1.1l-1.4,1.6l-0.3,2l-2.4,4.3l1.4,1.6l-1.3,3.4l0.6,1.9l1.7,0.2l0.6,2.1l4.4,2.7l-0.3,1.6L650,178l0.1,1.4l-3.2,2.2
		l-2.7,0.1l-1.8,2.4l-48.2,9.4l-13.6,2.3l-2.6-15.9l-3.8-23.3l0,0l2.2-1.3l6.5-5.3L582.9,150.2z"/>
	<path display="inline" fill="#FDD0A2" stroke="#FFFFFF" d="M692.9,136.5l1.8,2.8l-2.4,1L692.9,136.5z M687.2,131.8l1.8-0.5l1.7,3.8
		l1.6,0.9l-1.6,0.1l-0.6,2.9l0.5,3.6l-4.5,2.1l0.3-1.8l-2.6-10.1L687.2,131.8z"/>
	<path display="inline" fill="#FDD0A2" stroke="#FFFFFF" d="M562.5,281.5l2.8-2l3.7-1.2l17.4-1.8l0.4,1.8l1.3-1.3l2.6,2.6l0.1,2
		l15.8-2.3l18.9,13.6l-2.3,1.3l-2.6,3.4l-2.2,5l0.1,3.7l-1.9,3.3l-3.2,0.6l-0.3,2.2l-3,2.9l-1.5,2.8l-2.8,1.5l-2.8,3.2l-0.1,1.3
		l-2.8,1.9l-2.7,4.2l-3.6-1l-0.5-2.9l-3-4.3l-2.2-0.9l-0.7-3.7l-1.4-2.7l-4.3-2.1l-3-2.9l-0.1-2l-4.3-2.4l-2.3-3l-3.6-1.7l-2.8-3.3
		l-0.7-1.9l-2.7-3.5l-1.4,0.5l-5.2-3.1l0-1.8l2.5-4.1L562.5,281.5z"/>
	<path display="inline" fill="#FD8D3C" stroke="#FFFFFF" d="M277.9,99.2l90.9,4.3l-0.3,2l-3.4,3.7l2.1,3.4l2.8,2l-0.1,31.4l-1.7,0.4
		l0.7,1.4l-0.4,3.1l1.6,1.7l-1,1.2l-0.4,3.5l-1.1,2.6l2.4,3.9l-2.3-0.5l-0.8-2.5l-6.7-3.3l-6-0.1l-1.8-0.4l-1.6,1.7l-6.5-3.3
		l-0.4-0.9l-39.7-1.7l-21.5-1.6l-9.2-0.7l2.9-34.8l0.2,0L277.9,99.2z"/>
	<path display="inline" fill="#FDD0A2" stroke="#FFFFFF" d="M485.9,264.7l-0.5-3.2l3.1,0.5l17.4-2l15.3-0.9l2.7-0.5l10.3-0.6
		l11.8-1.3l0.2-0.3l27.4-3.7l0,4.2l-2.4,1.2l-1.3,3.5l-2.6-0.3l-5,4.1l-0.6-1.7l-1.7,1.4l-2.5,4.3l-3.5,1.4l-3.1,3.1l-3.8,0.6
		l-3.1,3l-0.7,3l-2.7,0.7l0.1,4.2l-18.1,2.2l-24.8,2.2l-11.9,1.1l-3.8,0.3l-26,1.8l1.4-0.6l1.2-3.2l-0.5-4.2l2.4-3.1l0.3-2.7l2-1.1
		l0.2-3.3l2.5-4.6l-0.4-4.3l0.8-0.1l0.9-0.1l1.7-0.3L485.9,264.7z"/>
	<path display="inline" fill="#FDAE6B" stroke="#FFFFFF" d="M294.9,266.8l25.2,1.3l-1.4,34.1l1.1-0.1l3.1,3.5l1.7-0.5l4.5,0.4
		l0.9,3.4l2.9-0.1l3.1,1.6l2.8-0.1l1.1,1.5l1.8-1.6l2.7,0.8l1.1,2l2,0.3l1.1,2.4l2.6-2.3l3.4,1.4l1.2,1.5l1.7-0.7l1.2,2.2l3.7-3.9
		l1,2l3.2,0l3,1.3l1.1,1.5l2.8-2.7l3.1-0.9l1.4,1l3.4-1.7l0.8,1l3.7,0.1l0.9-1.5l3.7,1.7l1.4,2l5.6,1.8l1.5,1.6l2.8-0.9l2.1,0.7
		l0.2,9.3l0.4,18l3.3,3.8l0.2,3.8l4.2,7l0.3,3.7l-1.4,4.5l-1.4,1.9l0.6,2.4l-1,1.8l1.2,3.3l-3.4,6.3l1.4,1.7l-2.5,0.2l-7.8,2.5
		l-2.8-1.3l-0.5-2.9l-2,2l-1.4-0.5l-0.7,2.5l1.6,1l0.3,3.2l-2.8,3.5l-4.6,4.3l-9.2,4.6l-0.9-0.8l-2.8,1.1l-0.1-1l-3.8,0.7l-1.8-2.2
		l-1.1,0.5l4,4.5l-3,1.4l-2.8-0.9l-0.4,3.1l-3.5,3.2l-3.6,6l-2.4,6.2l-1.7-0.5l-0.5,2.3l1.8-0.5l-0.9,4.5l-1.2,0.2l-0.1,2.6l1.4,1.4
		l0.4,5.2l1.7,1.8l0.4,3.3l1.3,3l-4.9,1.7l-2-2.3l-3.7-0.9l-4.9,0.1l-4.2-2.9l-3.2-0.4l-2.4-2.3l-3.3-0.9l-2.2-2.3l-1.3-5.3
		l-2.7-3.2l0.4-2.6l-1.2-2.9l0.5-2.5l-1.9-2.8l-1.6-0.3l-2.5-2.6l-0.7-3.2l-2.2-3l-3.2-2.5l-1.4-5.3l-1.4-1.5l-1.8-4.3l-0.5-3.5
		l-1.8-2.6l-3.1-2.4l-0.7-1.6l-2.9-1.5l-2.1-3.9l-6.6-1.3l-4-0.1l-3.3-1.6l-0.9,1.8l-3.7,0.3l-3,3.4l-2.1,5.7l-0.9,0l-2.3,3.3
		l-2.5-0.1l-3.5-3l-9-5.1l-1.6-2.4l-3.4-2.5l-2.1-5.2l0.2-4.5l-2.2-3.9l-0.3-3.2l-1.4-2.2l-5.5-3.5l-2.7-4.3l-2.4-1.7l-2.3-3.7
		l-3.5-2.2l-2.1-4.9l-2.1-1.2l-1.5-2.2l0.6-1.7l52,4.9l1.3-17.5l1.6-17.7l3.3-43.6l0.5,0L294.9,266.8z"/>
	<path display="inline" fill="#FDD0A2" stroke="#FFFFFF" d="M168.4,154.8l14.2,2.3l-2.8,17.4l25.8,3.8l-4.6,32.7l-2.1,14.8l0,1.9
		l-2.8,20.4l-19.9-3l-48.3-8.3l16.7-86.4L168.4,154.8z"/>
	<path display="inline" fill="#FD8D3C" stroke="#FFFFFF" d="M674.1,80.9l0.6,1.6l-0.9,3.2l1.8,2.5l-1.2,3.4l-3.6,2.6l1.1,4.2
		l-0.7,1.7l-0.1,4.1l-1.3,3.9l0.9,7.4l0.7,2.4l-0.8,1.2l0.5,2.6l1.4,1l-10.1,2.2l-0.5-1.5l-2.5-11.9l-2.6-2.3l0.3-1.6l-2.2-4.4
		l0.6-3.8l-0.5-3.3l-1.9-2.8l-0.1-3.3l-1-3.5l12.4-2.9L674.1,80.9z"/>
	<path display="inline" fill="#FEEDDE" stroke="#FFFFFF" d="M609.8,195.2l7.9,4.5l0.8-3.6l2.1-0.1l1.7,1.1l0.5,2.6l2.9,0.3l2.1,1.3
		l1.5,2.3l-0.6,3l-1.4,1.1l-0.5,2.7l0.9,1.7l3.5-1.3l1.2,2.6l4.9,0.2l1.8,1.9l4.2,1.6l-0.7,5.2l2.3,3.5l-1.5,2.2l0.2,2.2l2,1
		l-1.4,2.5l-3.4-2.2l-0.5,1.1l2.9,1.5l6.8-0.9l3.1,6.1l-49.6,9.9l-10.7,1.7l-9.4,1.2l-9.7,1l-27.4,3.7l7-3.5l0.6-2l2.5-1l-0.1-1.6
		l1.9-1.4l-0.2-1.3l4.6-3.3l4.5-5.4l0,1.5l2.3,2.7l2.5,1.1l1.7-0.4l2.3-2.7l2.1,1.5l3.3-1.5l5.6-4.3l0.7,1l2.1-1.9l-0.4-3.2l1-3
		l2.1-3l0.5-3.3l2.1-3.7l0.3-4.2l2.7,2l2.3,0.4l1.1-1.7l1.7-6.7l1.9,1.2l4.9-8.2L609.8,195.2z M653.9,212.3l2-0.7l-1.1,3.3l-1.6,1.4
		l-0.2,4.2l-1.4,7l-2,1.8l-1.2-2.2l0-5.5l2.1-7.5L653.9,212.3z"/>
	<path display="inline" fill="#FD8D3C" stroke="#FFFFFF" d="M133.7,23.5l-4.8,20.8l-5,22.7l-0.5,1.4l0.9,3.3l-0.6,3l-24.4-5.8
		l-1.9,0.7l-4.8-0.8l-5.5,0.2l-3.3,0.9L80,69.3l-1.3-1.2l-7.1,0.7l-0.1-1.2L68,65.6L64.7,65l-5.9,1.2l-5.5-3.6l0.9-5.2l-0.5-2.3
		l-2-2.5l-1.1-0.1l-2-0.1l-1.5-2.5l-1.9-1.3l-2,0.5L41.4,47l1.1-2.1l1.9-0.7l-1.3-4.2l1.2-9.5L43.8,29l0.7-6.7L43,19.1l0.6-5.2
		l2.2-2.9l1.8,2.2l4,3.5l3.2,0.9l2.9,1.8l3.2,0.1l1,1.9l2.7,0.7l0.8,4.2l1.4,0.1l-1.2,5L65.2,36l1.3-0.1l0-4.2l1.4-3.7l3-3.3l-1-2
		l0.7-2.8l-0.3-3.3l1.2-2l0-2.8l-1.7-0.9l-1.1-2.4l1-1.7L133.7,23.5z M66.6,18.5l1.7-0.3l-1.2,3.3l-1.4-1.8L66.6,18.5z M64.5,13
		l1.9-1.8l0.9,3.1l-1.1,2.1L63.7,15L64.5,13z"/>
	<path display="inline" fill="#FD8D3C" stroke="#FFFFFF" d="M578,179.9l2.6,15.9l13.6-2.3l1.4,9l2.3-2.1l2.1-3.4l1.8,0.3l2.1-3
		l4.1,0.5l0.1-2l2.2-0.3l1-1.6l2.5,1.2l2.2-0.4l2.4,4.5l-0.8,3.6l-7.9-4.5l0.2,5.3l-4.9,8.2l-1.9-1.2l-1.7,6.7l-1.1,1.7l-2.3-0.4
		l-2.7-2l-0.3,4.2l-2.1,3.7l-0.5,3.3l-2.1,3l-1,3l0.4,3.2l-2.1,1.9l-0.7-1l-5.6,4.3l-3.3,1.5L576,239l-2.3,2.7l-1.7,0.4l-2.5-1.1
		l-2.3-2.7l0-1.5l-1.8,0l-2.9-1.6l-1-1.9L559,231l-2.1-3.1l-0.4-5.3l3.5-0.9l0.2-2.4l1.5-1.2l-1-2.6l1.9-4.6l2.4,2.4l1.1-1.8
		l-0.7-1.9l1.2-3.6l1.5-0.1l1.1-2.7l1.6,0.9l1.5-1l4.2-6.4l0.2-6.6l1.1-4.5l-0.4-2.7l-1.2-1.8L578,179.9z"/>
	<path display="inline" fill="#FDD0A2" stroke="#FFFFFF" d="M442.8,90.5l2.3,0.9l1.5,2.9l12.7,2.7l5.4,2.2l1.5-0.7l5.3,1.3l1.6,2.1
		l2.7,1.9l0.1,3.1l-0.9,2.5l2.9,0.1l-0.9,2.6l2,1.6l-0.3,2.1l-2.3,0.6l-1.7,4.2l-0.5,2.8l1.5,0.4l1.7-2l1.7-3.6l2.4-1.6l1.6-4.6
		l2.5-1.2l0,2.3l-1.6,2.3l-2.8,7.6l-0.6,4.1l0.3,2.9l-1.2,1.1l-0.8,4l0.7,3.3l-0.9,2.3l-1,5.6l0.7,4.3l1.9,3.7l0,5.1l-12.6,1
		l-23.6,1.3l-1-2.2l-4.6-1.8l-1.1-2.7l-0.6-3.9l1.4-2.2l-2-1.6l-0.3-2.6l-0.8-2l0.2-2.8l-2.6-3.7l-2-0.6l-3.7-2.8l-0.7-2.3l-3.9-1.8
		l-1.4-1.9l-2.6-0.2l-3.4-3l0.7-6.4l-0.4-3l1.3-2.7l-1.6-2.1l-1.4-0.1l0.1-2.5l2.7-3.8l3.4-1.6l0.7-1.1l-0.4-10.3l2.4-1.5l1,0.7
		l2.7,0.1l8.2-3.3l3-1.8l1.1,1.2l-1.5,2.4l4.1,2.7L442.8,90.5z"/>
	<path display="inline" fill="#FD8D3C" stroke="#FFFFFF" d="M214.9,108.7l38.7,4.7l22.8,2.3l-2.9,34.8l-3,35l-21.8-1.9l-28.4-3.3
		l-14.6-1.8l-25.8-3.8l2.8-17.4l6.8-42.9l1.4-9.1L214.9,108.7z"/>
	<g display="inline" opacity="0.15">
		<g>
			<g>
				<polyline fill="none" stroke="#000000" stroke-width="0.5" stroke-linecap="round" points="618.6,77.7 655,77.7 665.3,87.9 				
					"/>
				<g>
					<circle cx="665.3" cy="87.9" r="0.9"/>
				</g>
			</g>
		</g>
		<g>
			<g>
				<g>
					<g>
						<line fill="none" stroke="#000000" stroke-width="0.5" stroke-linecap="round" x1="596.5" y1="396.2" x2="534" y2="396.2"/>
						<g>
							<circle cx="596.4" cy="396.2" r="0.3"/>
						</g>
					</g>
				</g>
				<g>
					<circle cx="534" cy="396.2" r="0.9"/>
				</g>
			</g>
		</g>
		<g>
			<g>
				<line fill="none" stroke="#000000" stroke-width="0.5" stroke-linecap="round" x1="772.6" y1="125.5" x2="688.6" y2="125.5"/>
				<g>
					<circle cx="688.6" cy="125.5" r="0.9"/>
				</g>
			</g>
		</g>
		<g>
			<g>
				<line fill="none" stroke="#000000" stroke-width="0.5" stroke-linecap="round" x1="796.1" y1="139.3" x2="690.4" y2="139.3"/>
				<g>
					<circle cx="690.4" cy="139.3" r="0.9"/>
				</g>
			</g>
		</g>
		<g>
			<g>
				<line fill="none" stroke="#000000" stroke-width="0.5" stroke-linecap="round" x1="729.2" y1="176.5" x2="658.9" y2="176.5"/>
				<g>
					<circle cx="659" cy="176.5" r="0.9"/>
				</g>
			</g>
		</g>
		<g>
			<g>
				<line fill="none" stroke="#000000" stroke-width="0.5" stroke-linecap="round" x1="726.3" y1="195.4" x2="651.3" y2="195.4"/>
				<g>
					<circle cx="651.4" cy="195.4" r="0.9"/>
				</g>
			</g>
		</g>
		<g>
			<g>
				<line fill="none" stroke="#000000" stroke-width="0.5" stroke-linecap="round" x1="711.4" y1="208.7" x2="654.1" y2="208.7"/>
				<g>
					<circle cx="654.2" cy="208.7" r="0.9"/>
				</g>
			</g>
		</g>
		<g>
			<g>
				<polyline fill="none" stroke="#000000" stroke-width="0.5" stroke-linecap="round" points="721.8,158.1 698.9,158.1 
					681.7,140.9 				"/>
				<g>
					<circle cx="681.7" cy="140.9" r="0.9"/>
				</g>
			</g>
		</g>
		<g>
			<g>
				<polyline fill="none" stroke="#000000" stroke-width="0.5" stroke-linecap="round" points="679,227.8 657.8,227.8 631.6,201.5 
									"/>
				<g>
					<circle cx="631.6" cy="201.5" r="0.9"/>
				</g>
			</g>
		</g>
		<text transform="matrix(1 0 0 1 75.0728 43.543)" font-family="'MuseoSans-500'" font-size="9.0158">Prawn</text>
		<text transform="matrix(1 0 0 1 56.3726 101.1479)" font-family="'MuseoSans-500'" font-size="9.0158">Prawn</text>
		<text transform="matrix(1 0 0 1 35.6704 218.748)" font-family="'MuseoSans-500'" font-size="9.0158">Prawn</text>
		<text transform="matrix(1 0 0 1 135.9639 292.1914)" font-family="'MuseoSans-500'" font-size="9.0158">Blended</text>
		<text transform="matrix(1 0 0 1 205.8716 147.0679)" font-family="'MuseoSans-500'" font-size="9.0158">Cinnamon</text>
		<text transform="matrix(1 0 0 1 300.6943 127.0864)" font-family="'MuseoSans-500'" font-size="9.0158">Chocolate</text>
		<text transform="matrix(1 0 0 1 395.3525 166.1919)" font-family="'MuseoSans-500'" font-size="9.0158">Ranch</text>
		<text transform="matrix(1 0 0 1 390.1436 175.2075)" font-family="'MuseoSans-500'" font-size="9.0158">Dressing</text>
		<text transform="matrix(1 0 0 1 377.5938 96.5918)" font-family="'MuseoSans-500'" font-size="9.0158">Walleye</text>
		<text transform="matrix(1 0 0 1 157.9502 205.6758)" font-family="'MuseoSans-500'" font-size="9.0158">Chip</text>
		<text transform="matrix(1 0 0 1 218.8184 293.1934)" font-family="'MuseoSans-500'" font-size="9.0158">Green</text>
		<text transform="matrix(1 0 0 1 220.8242 302.21)" font-family="'MuseoSans-500'" font-size="9.0158">Chile</text>
		<text transform="matrix(1 0 0 1 420.6387 376.3711)" font-family="'MuseoSans-500'" font-size="9.0158">Crawfish</text>
		<text transform="matrix(1 0 0 1 454.5518 331.1133)" font-family="'MuseoSans-500'" font-size="9.0158">Pecan</text>
		<text transform="matrix(1 0 0 1 129.8408 122.7578)" font-family="'MuseoSans-500'" font-size="9.0158">Cheddar</text>
		<text transform="matrix(1 0 0 1 132.4473 131.7744)" font-family="'MuseoSans-500'" font-size="9.0158">Cheese</text>
		<text transform="matrix(1 0 0 1 52.0923 395.6787)" font-family="'MuseoSans-500'" font-size="9.0158">Cinnamon</text>
		<text transform="matrix(1 0 0 1 202.8813 437.7539)" font-family="'MuseoSans-500'" font-size="9.0158">Ahi</text>
		<text transform="matrix(1 0 0 1 198.9741 446.7676)" font-family="'MuseoSans-500'" font-size="9.0158">Tuna</text>
		<text transform="matrix(1 0 0 1 430.8691 120.8481)" font-family="'MuseoSans-500'" font-size="9.0158">Cheddar</text>
		<text transform="matrix(1 0 0 1 433.4736 129.8643)" font-family="'MuseoSans-500'" font-size="9.0158">Cheese</text>
		<text transform="matrix(1 0 0 1 329.2012 229.6606)" font-family="'MuseoSans-500'" font-size="9.0158">Ranch</text>
		<text transform="matrix(1 0 0 1 323.9907 238.6768)" font-family="'MuseoSans-500'" font-size="9.0158">Dressing</text>
		<text transform="matrix(1 0 0 1 202.0132 73.5684)" font-family="'MuseoSans-500'" font-size="9.0158">Chip</text>
		<text transform="matrix(1 0 0 1 343.7266 282.5732)" font-family="'MuseoSans-500'" font-size="9.0158">Ranch</text>
		<text transform="matrix(1 0 0 1 338.519 291.5908)" font-family="'MuseoSans-500'" font-size="9.0158">Dressing</text>
		<text transform="matrix(1 0 0 1 411.6055 293.1934)" font-family="'MuseoSans-500'" font-size="9.0158">Ranch</text>
		<text transform="matrix(1 0 0 1 406.3965 302.21)" font-family="'MuseoSans-500'" font-size="9.0158">Dressing</text>
		<text transform="matrix(1 0 0 1 497.7559 325.2549)" font-family="'MuseoSans-500'" font-size="9.0158">Ranch</text>
		<text transform="matrix(1 0 0 1 492.5488 334.2656)" font-family="'MuseoSans-500'" font-size="9.0158">Dressing</text>
		<text transform="matrix(1 0 0 1 568.7285 211.0264)" font-family="'MuseoSans-500'" font-size="9.0158">Ranch</text>
		<text transform="matrix(1 0 0 1 563.7197 220.0444)" font-family="'MuseoSans-500'" font-size="9.0158">Dressing</text>
		<text transform="matrix(1 0 0 1 517.9463 238.0713)" font-family="'MuseoSans-500'" font-size="9.0158">Ranch</text>
		<text transform="matrix(1 0 0 1 512.7354 247.085)" font-family="'MuseoSans-500'" font-size="9.0158">Dressing</text>
		<text transform="matrix(1 0 0 1 623.1709 64.686)" font-family="'MuseoSans-500'" font-size="9.0158">Ranch</text>
		<text transform="matrix(1 0 0 1 617.9619 73.7017)" font-family="'MuseoSans-500'" font-size="9.0158">Dressing</text>
		<text transform="matrix(1 0 0 1 549.166 325.2549)" font-family="'MuseoSans-500'" font-size="9.0158">Grits</text>
		<text transform="matrix(1 0 0 1 485.1162 276.7197)" font-family="'MuseoSans-500'" font-size="9.0158">Chocolate</text>
		<text transform="matrix(1 0 0 1 85.208 188.6846)" font-family="'MuseoSans-500'" font-size="9.0158">Vanilla</text>
		<text transform="matrix(1 0 0 1 599.5918 266.0859)" font-family="'MuseoSans-500'" font-size="9.0158">Slaw</text>
		<text transform="matrix(1 0 0 1 318.8291 180.6372)" font-family="'MuseoSans-500'" font-size="9.0158">Dip</text>
		<text transform="matrix(1 0 0 1 417.8389 236.0674)" font-family="'MuseoSans-500'" font-size="9.0158">Dip</text>
		<text transform="matrix(1 0 0 1 587.8838 299.8467)" font-family="'MuseoSans-500'" font-size="9.0158">Dip</text>
		<text transform="matrix(1 0 0 1 533.9668 390.9551)" font-family="'MuseoSans-500'" font-size="9.0158">Grouper</text>
		<text transform="matrix(1 0 0 1 596.7871 166.1753)" font-family="'MuseoSans-500'" font-size="9.0158">Hoagie</text>
		<text transform="matrix(1 0 0 1 591.1787 175.1924)" font-family="'MuseoSans-500'" font-size="9.0158">Sandwich</text>
		<text transform="matrix(1 0 0 1 612.04 137.0024)" font-family="'MuseoSans-500'" font-size="9.0158">Eggplant</text>
		<text transform="matrix(1 0 0 1 686.0742 71.0239)" font-family="'MuseoSans-500'" font-size="9.0158">Haddock</text>
		<text transform="matrix(1 0 0 1 488.1348 199.6318)" font-family="'MuseoSans-500'" font-size="9.0158">Cheddar</text>
		<text transform="matrix(1 0 0 1 490.7383 208.6475)" font-family="'MuseoSans-500'" font-size="9.0158">Cheese</text>
		<text transform="matrix(1 0 0 1 532.4844 188.6875)" font-family="'MuseoSans-500'" font-size="9.0158">Banana</text>
		<text transform="matrix(1 0 0 1 533.0869 197.7021)" font-family="'MuseoSans-500'" font-size="9.0158">Pepper</text>
		<text transform="matrix(1 0 0 1 507.6572 141.2773)" font-family="'MuseoSans-500'" font-size="9.0158">Green</text>
		<text transform="matrix(1 0 0 1 512.8682 150.0957)" font-family="'MuseoSans-500'" font-size="9.0158">Bell</text>
		<text transform="matrix(1 0 0 1 503.4512 158.1084)" font-family="'MuseoSans-500'" font-size="9.0158">Peppers</text>
		<text transform="matrix(1 0 0 1 452.7607 195.6113)" font-family="'MuseoSans-500'" font-size="9.0158">Green</text>
		<text transform="matrix(1 0 0 1 457.9707 204.6284)" font-family="'MuseoSans-500'" font-size="9.0158">Bell</text>
		<text transform="matrix(1 0 0 1 448.5537 213.644)" font-family="'MuseoSans-500'" font-size="9.0158">Peppers</text>
		<text transform="matrix(1 0 0 1 592.8838 230.8525)" font-family="'MuseoSans-500'" font-size="9.0158">Green Bell</text>
		<text transform="matrix(1 0 0 1 598.0938 239.8672)" font-family="'MuseoSans-500'" font-size="9.0158">Peppers</text>
		<text transform="matrix(1 0 0 1 310.5562 75.8574)" font-family="'MuseoSans-500'" font-size="9.0158">Sugar</text>
		<text transform="matrix(1 0 0 1 703.5381 122.4756)" font-family="'MuseoSans-500'" font-size="9.0158">Chicken Tender</text>
		<text transform="matrix(1 0 0 1 718.4941 136.2686)" font-family="'MuseoSans-500'" font-size="9.0158">Parmesan Cheese</text>
		<text transform="matrix(1 0 0 1 674.1133 173.4473)" font-family="'MuseoSans-500'" font-size="9.0158">Cheesesteak</text>
		<text transform="matrix(1 0 0 1 699.1553 155.1406)" font-family="'MuseoSans-500'" font-size="9.0158">Clam</text>
		<text transform="matrix(1 0 0 1 666.2012 205.6758)" font-family="'MuseoSans-500'" font-size="9.0158">Crab Cake</text>
		<text transform="matrix(1 0 0 1 657.7266 224.7583)" font-family="'MuseoSans-500'" font-size="9.0158">Herb</text>
		<text transform="matrix(1 0 0 1 226.8574 217.2822)" font-family="'MuseoSans-500'" font-size="9.0158">Jalapeno</text>
		<text transform="matrix(1 0 0 1 231.3652 226.2959)" font-family="'MuseoSans-500'" font-size="9.0158">Pepper</text>
		<path d="M257.6,210.9c0.5,0,0.9,0.3,1.1,0.3c0.2,0,0.2-0.1,0.2-0.3h0.5c0.2,0.6-0.1,1.2-0.6,1.2s-0.9-0.3-1.2-0.3
			c-0.2,0-0.2,0.1-0.2,0.3h-0.5C256.8,211.5,257,210.9,257.6,210.9z"/>
		<text transform="matrix(1 0 0 1 306.3154 352.6152)" font-family="'MuseoSans-500'" font-size="9.0158">Jalapeno</text>
		<text transform="matrix(1 0 0 1 310.8218 361.6328)" font-family="'MuseoSans-500'" font-size="9.0158">Pepper</text>
		<path d="M337.2,346.3c0.5,0,0.9,0.3,1.1,0.3c0.2,0,0.2-0.1,0.2-0.3h0.5c0.2,0.6-0.1,1.2-0.6,1.2c-0.5,0-0.9-0.3-1.2-0.3
			c-0.2,0-0.2,0.1-0.2,0.3h-0.5C336.3,346.9,336.6,346.3,337.2,346.3z"/>
		<text transform="matrix(1 0 0 1 705.7041 108.8521)" font-family="'MuseoSans-500'" font-size="9.0158">Haddock</text>
		<text transform="matrix(1 0 0 1 672.1826 192.3823)" font-family="'MuseoSans-500'" font-size="9.0158">Blue Cheese</text>
	</g>
</g>
<g id="Layer_2">
	<text transform="matrix(1 0 0 1 75.8463 43.7097)" font-family="'MuseoSans-300'" font-size="9">Prawn</text>
	<text transform="matrix(1 0 0 1 57.1796 101.2133)" font-family="'MuseoSans-300'" font-size="9">Prawn</text>
	<text transform="matrix(1 0 0 1 36.5129 218.6044)" font-family="'MuseoSans-300'" font-size="9">Prawn</text>
	<text transform="matrix(1 0 0 1 136.9673 291.9222)" font-family="'MuseoSans-300'" font-size="9">Blended</text>
	<text transform="matrix(1 0 0 1 206.8428 147.0522)" font-family="'MuseoSans-300'" font-size="9">Cinnamon</text>
	<text transform="matrix(1 0 0 1 301.6923 127.1073)" font-family="'MuseoSans-300'" font-size="9">Chocolate</text>
	<text transform="matrix(1 0 0 1 395.4739 166.1428)"><tspan x="0" y="0" font-family="'MuseoSans-300'" font-size="9">Ranch</tspan><tspan x="-4.6" y="8" font-family="'MuseoSans-300'" font-size="9">Dressing</tspan></text>
	<text transform="matrix(1 0 0 1 378.247 96.6638)" font-family="'MuseoSans-300'" font-size="9">Walleye</text>
	<text transform="matrix(1 0 0 1 158.298 205.5586)" font-family="'MuseoSans-300'" font-size="9">Chip</text>
	<text transform="matrix(1 0 0 1 219.2313 292.9221)"><tspan x="0" y="0" font-family="'MuseoSans-300'" font-size="9">Green</tspan><tspan x="2.1" y="8" font-family="'MuseoSans-300'" font-size="9">Chile</tspan></text>
	<text transform="matrix(1 0 0 1 421.2241 376.9522)" font-family="'MuseoSans-300'" font-size="9">Crawfish</text>
	<text transform="matrix(1 0 0 1 454.5124 330.7752)" font-family="'MuseoSans-300'" font-size="9">Pecan</text>
	<text transform="matrix(1 0 0 1 130.8255 122.7852)"><tspan x="0" y="0" font-family="'MuseoSans-300'" font-size="9">Cheddar</tspan><tspan x="2.2" y="8" font-family="'MuseoSans-300'" font-size="9">Cheese</tspan></text>
	<text transform="matrix(1 0 0 1 53.3343 396.2273)" font-family="'MuseoSans-300'" font-size="9">Cinnamon</text>
	<text transform="matrix(1 0 0 1 203.0247 438.2273)"><tspan x="0" y="0" font-family="'MuseoSans-300'" font-size="9">Ahi</tspan><tspan x="-3.8" y="8" font-family="'MuseoSans-300'" font-size="9">Tuna</tspan></text>
	<text transform="matrix(1 0 0 1 431.3255 120.8793)"><tspan x="0" y="0" font-family="'MuseoSans-300'" font-size="9">Cheddar</tspan><tspan x="2.2" y="8" font-family="'MuseoSans-300'" font-size="9">Cheese</tspan></text>
	<text transform="matrix(1 0 0 1 329.4378 229.5002)"><tspan x="0" y="0" font-family="'MuseoSans-300'" font-size="9">Ranch</tspan><tspan x="-4.6" y="8" font-family="'MuseoSans-300'" font-size="9">Dressing</tspan></text>
	<text transform="matrix(1 0 0 1 202.285 73.6825)" font-family="'MuseoSans-300'" font-size="9">Chip</text>
	<text transform="matrix(1 0 0 1 343.9378 282.3214)"><tspan x="0" y="0" font-family="'MuseoSans-300'" font-size="9">Ranch</tspan><tspan x="-4.6" y="8" font-family="'MuseoSans-300'" font-size="9">Dressing</tspan></text>
	<text transform="matrix(1 0 0 1 411.6981 292.9222)"><tspan x="0" y="0" font-family="'MuseoSans-300'" font-size="9">Ranch</tspan><tspan x="-4.6" y="8" font-family="'MuseoSans-300'" font-size="9">Dressing</tspan></text>
	<text transform="matrix(1 0 0 1 497.6981 324.9222)"><tspan x="0" y="0" font-family="'MuseoSans-300'" font-size="9">Ranch</tspan><tspan x="-4.6" y="8" font-family="'MuseoSans-300'" font-size="9">Dressing</tspan></text>
	<text transform="matrix(1 0 0 1 569.0914 212.0266)"><tspan x="0" y="0" font-family="'MuseoSans-300'" font-size="9">Ranch</tspan><tspan x="-4.6" y="8" font-family="'MuseoSans-300'" font-size="9">Dressing</tspan></text>
	<text transform="matrix(1 0 0 1 517.8513 237.8966)"><tspan x="0" y="0" font-family="'MuseoSans-300'" font-size="9">Ranch</tspan><tspan x="-4.6" y="8" font-family="'MuseoSans-300'" font-size="9">Dressing</tspan></text>
	<text transform="matrix(1 0 0 1 622.8392 65.4155)"><tspan x="0" y="0" font-family="'MuseoSans-300'" font-size="9">Ranch</tspan><tspan x="-4.6" y="8" font-family="'MuseoSans-300'" font-size="9">Dressing</tspan></text>
	<text transform="matrix(1 0 0 1 549.1389 324.9222)" font-family="'MuseoSans-300'" font-size="9">Grits</text>
	<text transform="matrix(1 0 0 1 485.7922 276.4782)" font-family="'MuseoSans-300'" font-size="9">Chocolate</text>
	<text transform="matrix(1 0 0 1 86.4335 188.5977)" font-family="'MuseoSans-300'" font-size="9">Vanilla</text>
	<text transform="matrix(1 0 0 1 599.2315 265.8615)" font-family="'MuseoSans-300'" font-size="9">Slaw</text>
	<text transform="matrix(1 0 0 1 318.7195 180.5636)" font-family="'MuseoSans-300'" font-size="9">Dip</text>
	<text transform="matrix(1 0 0 1 417.5565 235.896)" font-family="'MuseoSans-300'" font-size="9">Dip</text>
	<text transform="matrix(1 0 0 1 587.3005 299.563)" font-family="'MuseoSans-300'" font-size="9">Dip</text>
	<text transform="matrix(1 0 0 1 534.3715 390.9554)" font-family="'MuseoSans-300'" font-size="9">Grouper</text>
	<text transform="matrix(1 0 0 1 596.7435 166.128)"><tspan x="0" y="0" font-family="'MuseoSans-300'" font-size="9">Hoagie</tspan><tspan x="-5.1" y="8" font-family="'MuseoSans-300'" font-size="9">Sandwich</tspan></text>
	<text transform="matrix(1 0 0 1 612.4983 137.0054)" font-family="'MuseoSans-300'" font-size="9">Eggplant</text>
	<text transform="matrix(1 0 0 1 684.957 71.0756)" font-family="'MuseoSans-300'" font-size="9">Haddock</text>
	<text transform="matrix(1 0 0 1 488.4872 199.5252)"><tspan x="0" y="0" font-family="'MuseoSans-300'" font-size="9">Cheddar</tspan><tspan x="2.2" y="8" font-family="'MuseoSans-300'" font-size="9">Cheese</tspan></text>
	<text transform="matrix(1 0 0 1 532.5802 188.5983)"><tspan x="0" y="0" font-family="'MuseoSans-300'" font-size="9">Banana</tspan><tspan x="0.6" y="8" font-family="'MuseoSans-300'" font-size="9">Pepper</tspan></text>
	<text transform="matrix(1 0 0 1 507.5627 141.2733)"><tspan x="0" y="0" font-family="'MuseoSans-300'" font-size="9">Green</tspan><tspan x="5.1" y="8" font-family="'MuseoSans-300'" font-size="9">Bell</tspan><tspan x="-3.8" y="16" font-family="'MuseoSans-300'" font-size="9">Peppers</tspan></text>
	<text transform="matrix(1 0 0 1 452.7624 196.5125)"><tspan x="0" y="0" font-family="'MuseoSans-300'" font-size="9">Green</tspan><tspan x="5.1" y="8" font-family="'MuseoSans-300'" font-size="9">Bell</tspan><tspan x="-3.8" y="16" font-family="'MuseoSans-300'" font-size="9">Peppers</tspan></text>
	<text transform="matrix(1 0 0 1 593.5815 231.6908)"><tspan x="0" y="0" font-family="'MuseoSans-300'" font-size="9">Green Bell</tspan><tspan x="4.7" y="8" font-family="'MuseoSans-300'" font-size="9">Peppers</tspan></text>
	<text transform="matrix(1 0 0 1 310.9019 75.9647)" font-family="'MuseoSans-300'" font-size="9">Sugar</text>
	<text transform="matrix(1 0 0 1 706.7417 108.8522)" font-family="'MuseoSans-300'" font-size="9">Haddock</text>
	<text transform="matrix(1 0 0 1 704.379 122.4756)" font-family="'MuseoSans-300'" font-size="9">Chicken Tender</text>
	<text transform="matrix(1 0 0 1 719.6761 136.2685)" font-family="'MuseoSans-300'" font-size="9">Parmesan Cheese</text>
	<text transform="matrix(1 0 0 1 675.1819 173.4475)" font-family="'MuseoSans-300'" font-size="9">Cheesesteak</text>
	<text transform="matrix(1 0 0 1 699.5686 155.1404)" font-family="'MuseoSans-300'" font-size="9">Clam</text>
	<text transform="matrix(1 0 0 1 672.183 192.3826)" font-family="'MuseoSans-300'" font-size="9">Blue Cheese</text>
	<text transform="matrix(1 0 0 1 666.1611 205.6757)" font-family="'MuseoSans-300'" font-size="9">Crab Cake</text>
	<text transform="matrix(1 0 0 1 658.1169 224.7584)" font-family="'MuseoSans-300'" font-size="9">Herb</text>
	<g>
		<text transform="matrix(1 0 0 1 227.2564 217.2824)"><tspan x="0" y="0" font-family="'MuseoSans-300'" font-size="9">Jalapeno</tspan><tspan x="4.1" y="8" font-family="'MuseoSans-300'" font-size="9">Pepper</tspan></text>
		<path d="M255.4,210.9c0.5,0,0.9,0.3,1.1,0.3c0.2,0,0.2-0.1,0.2-0.3h0.5c0.2,0.6-0.1,1.2-0.6,1.2c-0.5,0-0.9-0.3-1.2-0.3
			c-0.2,0-0.2,0.1-0.2,0.3h-0.5C254.5,211.5,254.8,210.9,255.4,210.9z"/>
	</g>
	<g>
		<text transform="matrix(1 0 0 1 306.5894 352.6152)"><tspan x="0" y="0" font-family="'MuseoSans-300'" font-size="9">Jalapeno</tspan><tspan x="4.1" y="8" font-family="'MuseoSans-300'" font-size="9">Pepper</tspan></text>
		<path d="M334.8,346.1c0.5,0,0.9,0.3,1.1,0.3c0.2,0,0.2-0.1,0.2-0.3h0.5c0.2,0.6-0.1,1.2-0.6,1.2c-0.5,0-0.9-0.3-1.2-0.3
			c-0.2,0-0.2,0.1-0.2,0.3h-0.5C334,346.7,334.2,346.1,334.8,346.1z"/>
	</g>
</g>
<g id="LeaderLines">
	<g>
		<g>
			<line fill="none" stroke="#000000" stroke-width="0.5" stroke-miterlimit="10" x1="689.5" y1="125.5" x2="768" y2="125.5"/>
			<g>
				<circle cx="689.5" cy="125.5" r="0.9"/>
			</g>
		</g>
	</g>
	<g>
		<g>
			<line fill="none" stroke="#000000" stroke-width="0.5" stroke-miterlimit="10" x1="689.5" y1="111.9" x2="743.2" y2="111.9"/>
			<g>
				<circle cx="689.5" cy="111.9" r="0.9"/>
			</g>
		</g>
	</g>
	<g>
		<g>
			<line fill="none" stroke="#000000" stroke-width="0.5" stroke-miterlimit="10" x1="689.5" y1="139.3" x2="792.2" y2="139.3"/>
			<g>
				<circle cx="689.5" cy="139.3" r="0.9"/>
			</g>
		</g>
	</g>
	<g>
		<g>
			<line fill="none" stroke="#000000" stroke-width="0.5" stroke-miterlimit="10" x1="659" y1="176.5" x2="726.3" y2="176.5"/>
			<g>
				<circle cx="659.1" cy="176.5" r="0.9"/>
			</g>
		</g>
	</g>
	<g>
		<g>
			<line fill="none" stroke="#000000" stroke-width="0.5" stroke-miterlimit="10" x1="649.4" y1="195.5" x2="721.8" y2="195.5"/>
			<g>
				<circle cx="649.5" cy="195.5" r="0.9"/>
			</g>
		</g>
	</g>
	<g>
		<g>
			<line fill="none" stroke="#000000" stroke-width="0.5" stroke-miterlimit="10" x1="654.8" y1="208.6" x2="708" y2="208.6"/>
			<g>
				<circle cx="654.9" cy="208.6" r="0.9"/>
			</g>
		</g>
	</g>
	<g>
		<g>
			<line fill="none" stroke="#000000" stroke-width="0.5" stroke-miterlimit="10" x1="587.4" y1="395" x2="534.9" y2="395"/>
			<g>
				<circle cx="587.3" cy="395" r="0.9"/>
			</g>
		</g>
	</g>
	<g>
		<g>
			<polyline fill="none" stroke="#000000" stroke-width="0.5" stroke-miterlimit="10" points="619.4,77.6 655.5,77.6 665.2,87.3 			
				"/>
			<g>
				<circle cx="665.1" cy="87.2" r="0.9"/>
			</g>
		</g>
	</g>
	<g>
		<g>
			<polyline fill="none" stroke="#000000" stroke-width="0.5" stroke-miterlimit="10" points="677.5,227.8 655.9,227.8 630.1,201.9 
							"/>
			<g>
				<circle cx="630.1" cy="202" r="0.9"/>
			</g>
		</g>
	</g>
	<g>
		<g>
			<polyline fill="none" stroke="#000000" stroke-width="0.5" stroke-miterlimit="10" points="720.7,158 699.1,158 681.9,140.8 			
				"/>
			<g>
				<circle cx="681.9" cy="140.8" r="0.9"/>
			</g>
		</g>
	</g>
	<g>
		<g>
			<line fill="none" stroke="#000000" stroke-width="0.5" stroke-miterlimit="10" x1="236.1" y1="449.1" x2="199.8" y2="449.1"/>
			<g>
				<circle cx="236.1" cy="449.1" r="0.9"/>
			</g>
		</g>
	</g>
</g>
</svg>
